<svg width="29" height="26" viewBox="0 0 29 26" fill="none" xmlns="http://www.w3.org/2000/svg">
  <path d="M7.82178 24.247H27.5085V1.33279H1.25928V24.247H7.82178ZM22.6968 2.91308H25.7585V4.88844H22.6968V2.91308ZM22.6968 6.46873H25.7585V8.44409H22.6968V6.46873ZM22.6968 10.0244H25.7585V11.9997H22.6968V10.0244ZM22.6968 13.58H25.7585V15.5554H22.6968V13.58ZM22.6968 17.1357H25.7585V19.111H22.6968V17.1357ZM22.6968 20.6913H25.7585V22.6667H22.6968V20.6913ZM7.82178 10.0244V2.91308H20.946V11.9997H7.82178V10.0244ZM7.82178 20.6913V13.58H20.946V22.6667H7.82178V20.6913ZM3.00928 2.91308H6.07178V4.88844H3.00928V2.91308ZM3.00928 6.46873H6.07178V8.44409H3.00928V6.46873ZM3.00928 10.0244H6.07178V11.9997H3.00928V10.0244ZM3.00928 13.58H6.07178V15.5554H3.00928V13.58ZM3.00928 17.1357H6.07178V19.111H3.00928V17.1357ZM3.00928 20.6913H6.07178V22.6667H3.00928V20.6913Z" fill="#DDE9FB"/>
</svg>
