<svg width="24" height="24" viewBox="0 0 24 24" fill="none" xmlns="http://www.w3.org/2000/svg">
<path d="M2.00195 12.002C2.00252 14.3833 2.85242 16.6864 4.39892 18.4972C5.94541 20.308 8.08707 21.5078 10.439 21.881V14.892H7.90195V12.002H10.442V9.80202C10.3859 9.28711 10.4438 8.76616 10.6118 8.27619C10.7797 7.78621 11.0535 7.33921 11.4136 6.96695C11.7737 6.59469 12.2114 6.30629 12.6956 6.12224C13.1797 5.93819 13.6985 5.863 14.215 5.90202C14.965 5.91402 15.715 5.98102 16.455 6.10202V8.56102H15.191C14.9761 8.53288 14.7577 8.55338 14.5519 8.621C14.346 8.68862 14.158 8.80163 14.0017 8.95169C13.8454 9.10174 13.7249 9.285 13.6489 9.48791C13.573 9.69083 13.5436 9.90822 13.563 10.124V12.002H16.334L15.891 14.893H13.563V21.881C15.4506 21.5827 17.2132 20.7498 18.6421 19.4808C20.071 18.2118 21.1064 16.56 21.6257 14.7208C22.145 12.8817 22.1264 10.9323 21.5721 9.10335C21.0179 7.27445 19.9512 5.64265 18.4983 4.40116C17.0455 3.15968 15.2673 2.36049 13.3743 2.09822C11.4814 1.83596 9.55287 2.1216 7.81721 2.92132C6.08154 3.72105 4.61137 5.00137 3.58076 6.6107C2.55015 8.22003 2.00226 10.091 2.00195 12.002Z" fill="#DDE9FB"/>
</svg>
