<svg width="21" height="16" viewBox="0 0 21 16" fill="none" xmlns="http://www.w3.org/2000/svg">
<path d="M10.0207 15.006H10.0007C9.93865 15.006 3.73565 14.994 2.17065 14.569C1.74779 14.4551 1.36227 14.2321 1.05269 13.9223C0.743111 13.6126 0.52033 13.2269 0.406652 12.804C0.125236 11.2164 -0.0106613 9.60637 0.000652196 7.99402C-0.00661314 6.37903 0.132961 4.76673 0.417652 3.17702C0.534542 2.75339 0.758352 2.36692 1.0676 2.05469C1.37685 1.74246 1.76117 1.51496 2.18365 1.39402C3.70565 0.994019 9.73765 0.994019 9.99365 0.994019H10.0147C10.0777 0.994019 16.2967 1.00602 17.8457 1.43102C18.7047 1.66402 19.3757 2.33502 19.6077 3.19402C19.8977 4.78802 20.0347 6.40502 20.0147 8.02502C20.0217 9.63805 19.8817 11.2484 19.5967 12.836C19.4815 13.2585 19.2578 13.6435 18.9478 13.9527C18.6379 14.262 18.2524 14.4848 17.8297 14.599C16.3097 15.002 10.2767 15.006 10.0207 15.006ZM8.02065 4.99902L8.01565 10.999L13.2277 7.99902L8.02065 4.99902Z" fill="#DDE9FB"/>
</svg>
