<svg width="433" height="129" viewBox="0 0 433 129" fill="none" xmlns="http://www.w3.org/2000/svg">
<path d="M21.0462 88L7.68541 91.3402C7.24004 92.6763 8.79881 95.7938 9.63386 97.1856C8.52046 98.5216 8.61324 100.897 8.79881 101.918C9.35551 102.938 10.6916 104.367 11.5823 101.918C12.6957 98.8557 13.5308 99.9691 14.9225 100.526C16.0359 100.971 16.871 105.165 17.1493 107.206C18.1699 109.155 20.7122 112.885 22.7163 112.216C24.7205 111.548 31.1596 115.278 34.1287 117.227C37.0978 119.546 42.8132 123.796 41.9225 122.237C40.8091 120.289 42.4792 116.67 45.5411 117.784C47.9906 118.674 48.4174 120.381 48.3246 121.124C47.9534 123.258 47.9349 127.748 50.8297 128.639C53.7246 129.53 64.84 123.258 70.0359 120.01C73.84 120.938 81.1143 122.07 79.7782 119.175C78.4421 116.28 81.8194 114.258 83.6751 113.608C85.438 114.072 88.7411 114.443 87.8503 112.216C86.7369 109.433 86.7369 106.928 87.0153 103.031C87.2936 99.134 84.5101 98.299 82.2833 98.0206C80.0565 97.7423 75.8813 100.247 74.7679 102.474C73.6545 104.701 70.0359 104.144 63.6339 104.979C57.2318 105.814 58.3452 103.588 58.3452 103.031C55.8957 103.031 51.572 99.134 49.7163 97.1856L40.8091 91.3402C38.3967 92.3608 32.8483 94.4021 29.9534 94.4021C27.0586 94.4021 22.8091 90.134 21.0462 88Z" fill="#A1B4D1"/>
<path d="M4.17526 65.866L0.835052 58.9072L0 57.7938L9.46392 53.0619L10.0206 51.6701L13.0825 53.0619L12.5258 48.3299L11.134 45.268V43.0412V39.9794L8.62887 38.3093L10.0206 35.8041L8.62887 30.7938L17.5361 26.0619L24.4948 22.7216L26.4433 24.9485L29.2268 26.0619L32.567 23.8351V20.4948L38.134 20.2165L38.4124 17.7113H40.9175L45.3711 18.8247V21.8866L47.8763 23.2784L48.9897 26.0619L54.5567 24.9485V22.7216L57.3402 20.4948V16.3196L59.567 13.8144V9.63918L63.4639 8.52577V4.90722L61.2371 -0.103092L59.567 -4H432.5C413 8.52577 353.536 22.7216 287.5 26.0619C171.901 31.909 140.221 48.5666 132.736 60.2616L133.608 61.134L131.103 64.4742L131.66 67.8144L130.769 68.204C131.152 70.8963 132.495 72.5464 132.495 72.5464L127.206 69.7629L130.769 68.204C130.47 66.0975 130.757 63.3529 132.736 60.2616L129.99 57.5155L133.887 51.3918L128.876 53.6186L116.072 67.8144L120.526 71.7113L125.814 69.2062V72.5464L119.412 75.8866L113.845 82.0103L112.454 76.7216L106.33 75.8866L109.67 71.7113L109.948 68.6495L101.041 71.1546L102.711 67.8144L94.9175 71.1546L92.4124 78.9484L86.8454 82.567L85.1753 82.0103L86.0103 79.5051L86.8454 74.4948L90.7423 72.8247L87.9588 68.6495L86.0103 64.4742L76.268 60.8557L69.866 65.866L63.4639 68.6495H54.5567L46.2062 65.866L40.9175 68.6495L33.6804 72.8247L30.8969 75.0515L24.4948 72.8247V68.6495H21.7113L14.4742 65.866L11.134 70.3196L4.17526 65.866Z" fill="#D6E6FD"/>
<path fill-rule="evenodd" clip-rule="evenodd" d="M45.4992 40.069L42.4901 51.5542L49.1578 50.2575L49.3006 49.232H53.3086L52.1086 57.896C52.0926 58.008 52.0846 58.144 52.0846 58.304C52.0846 58.784 52.2606 59.024 52.6126 59.024C53.1086 59.024 53.6766 58.488 54.3166 57.416L55.4686 49.232H59.4766L57.6766 62H54.1966L54.2686 60.248C53.7726 60.936 53.2366 61.472 52.6606 61.856C52.0846 62.24 51.4286 62.432 50.6926 62.432C49.8126 62.432 49.1326 62.168 48.6526 61.64C48.1726 61.096 47.9326 60.352 47.9326 59.408C47.9326 59.136 47.9566 58.848 48.0046 58.544L48.4888 55.0645L41.4558 56.0153C40.6408 59.4324 39.2617 64.5896 37.3183 71.4871C33.1182 86.4209 31.0181 95.8811 31.0181 99.8677L25 103C25 97.558 27.3195 87.0537 31.9584 71.4871C34.3406 63.7037 35.8138 58.7047 36.378 56.4899C34.1839 57.0594 32.1778 57.3442 30.3599 57.3442C26.7866 57.3442 25 55.9204 25 53.0729C25 51.4909 26.1911 49.5925 28.5732 47.3778C32.0211 44.1505 36.1272 41.303 40.8916 38.8351C44.5902 26.116 47.2545 18.1429 48.8844 14.9156C51.0785 10.5494 53.0845 7.7651 54.9025 6.5628C57.5981 4.85427 60.3877 4 63.2714 4C66.1551 4 68.1924 4.82263 69.3835 6.46788C70.5746 8.11314 71.1075 10.0431 70.9821 12.2579C70.6686 20.2311 62.1743 29.5014 45.4992 40.069ZM60.5444 12.0681C57.0339 12.0681 54.4323 13.7766 52.7397 17.1937C51.4232 19.8514 50.2635 23.047 49.2605 26.7804C48.2575 30.5139 47.5365 33.0767 47.0977 34.4688C50.5456 32.3174 54.2442 29.4065 58.1936 25.7363C62.143 22.0662 64.1804 18.8706 64.3057 16.1496C64.4311 13.4286 63.1774 12.0681 60.5444 12.0681ZM37.6944 52.0288L39.7632 43.6759C37.381 44.6884 35.5003 45.7325 34.1212 46.8082C32.8047 47.884 32.1465 48.8015 32.1465 49.5609C32.1465 51.2061 33.9958 52.0288 37.6944 52.0288ZM100.725 49.232L98.9489 62H94.9409L96.7169 49.232H100.725ZM99.1169 46.952C98.4769 46.952 97.9729 46.776 97.6049 46.424C97.2369 46.056 97.0529 45.576 97.0529 44.984C97.0529 44.248 97.3009 43.64 97.7969 43.16C98.2929 42.664 98.9009 42.416 99.6209 42.416C100.261 42.416 100.765 42.6 101.133 42.968C101.501 43.32 101.685 43.792 101.685 44.384C101.685 45.12 101.437 45.736 100.941 46.232C100.445 46.712 99.8369 46.952 99.1169 46.952ZM77.611 50.744C78.187 50.072 78.787 49.584 79.411 49.28C80.035 48.96 80.715 48.8 81.451 48.8C82.427 48.8 83.203 49.072 83.779 49.616C84.371 50.16 84.667 50.88 84.667 51.776C84.667 52.752 84.411 53.6 83.899 54.32C83.403 55.04 82.627 55.68 81.571 56.24L83.419 62H79.171L77.443 55.856C78.611 55.424 79.427 54.936 79.891 54.392C80.371 53.848 80.611 53.24 80.611 52.568C80.611 52.248 80.531 52.008 80.371 51.848C80.227 51.688 80.027 51.608 79.771 51.608C78.923 51.608 78.043 52.384 77.131 53.936L76.027 62H71.995L74.491 44.168L78.571 43.76L77.611 50.744ZM70.7532 49.568C70.2892 49.04 69.6492 48.776 68.8332 48.776C68.0812 48.776 67.3772 49 66.7212 49.448C66.0652 49.896 65.4892 50.504 64.9932 51.272L65.0412 49.232H61.5372L59.7612 62H63.7692L64.7772 54.92C65.1932 54.04 65.5612 53.384 65.8812 52.952C66.2012 52.52 66.5052 52.304 66.7932 52.304C67.0972 52.304 67.2492 52.536 67.2492 53C67.2492 53.192 67.2412 53.344 67.2252 53.456L66.0492 62H70.0572L71.3772 52.64C71.4252 52.32 71.4492 52.032 71.4492 51.776C71.4492 50.832 71.2172 50.096 70.7532 49.568ZM95.6449 50.432C94.6209 49.328 93.3169 48.776 91.7329 48.776C90.2769 48.776 89.0289 49.176 87.9889 49.976C86.9649 50.76 86.1969 51.784 85.6849 53.048C85.1729 54.312 84.9169 55.648 84.9169 57.056C84.9169 58.736 85.3649 60.056 86.2609 61.016C87.1569 61.96 88.3969 62.432 89.9809 62.432C91.5169 62.432 92.9089 61.936 94.1569 60.944L92.7169 58.472C92.2849 58.744 91.9089 58.944 91.5889 59.072C91.2849 59.2 90.9649 59.264 90.6289 59.264C90.1329 59.264 89.7489 59.112 89.4769 58.808C89.2209 58.488 89.0929 57.936 89.0929 57.152C89.0929 55.776 89.3089 54.56 89.7409 53.504C90.1729 52.432 90.8689 51.896 91.8289 51.896C92.4849 51.896 93.1089 52.16 93.7009 52.688L95.6449 50.432ZM100.363 63.08C99.9306 63.624 99.2666 64.08 98.3706 64.448L99.3066 67.352C100.411 66.952 101.347 66.504 102.115 66.008C102.899 65.512 103.563 64.816 104.107 63.92C104.667 63.04 105.051 61.896 105.259 60.488L106.843 49.232H102.811L101.227 60.656C101.083 61.744 100.795 62.552 100.363 63.08ZM103.699 46.424C104.067 46.776 104.571 46.952 105.211 46.952C105.931 46.952 106.539 46.712 107.035 46.232C107.531 45.736 107.779 45.12 107.779 44.384C107.779 43.792 107.595 43.32 107.227 42.968C106.859 42.6 106.355 42.416 105.715 42.416C104.995 42.416 104.387 42.664 103.891 43.16C103.395 43.64 103.147 44.248 103.147 44.984C103.147 45.576 103.331 46.056 103.699 46.424ZM114.449 48.776C116.129 48.776 117.745 49.216 119.297 50.096L118.145 58.184C118.113 58.504 118.097 58.72 118.097 58.832C118.097 59.056 118.137 59.24 118.217 59.384C118.297 59.512 118.433 59.624 118.625 59.72L117.425 62.36C116.705 62.296 116.081 62.104 115.553 61.784C115.041 61.464 114.689 61.008 114.497 60.416C114.033 61.072 113.521 61.576 112.961 61.928C112.417 62.264 111.777 62.432 111.041 62.432C109.857 62.432 108.945 62.008 108.305 61.16C107.665 60.296 107.345 59.12 107.345 57.632C107.345 56.144 107.585 54.728 108.065 53.384C108.545 52.04 109.313 50.936 110.369 50.072C111.441 49.208 112.801 48.776 114.449 48.776ZM114.185 51.656C113.273 51.656 112.585 52.272 112.121 53.504C111.657 54.72 111.425 56.112 111.425 57.68C111.425 58.336 111.513 58.8 111.689 59.072C111.865 59.328 112.113 59.456 112.433 59.456C112.993 59.456 113.585 58.96 114.209 57.968L115.097 51.8C114.777 51.704 114.473 51.656 114.185 51.656ZM86.5155 69.46L86.2635 71.224L81.6555 77.092H85.5435L85.0395 79H78.4875L78.7395 77.236L83.3475 71.35H79.8915L80.1795 69.46H86.5155ZM86.0295 64.564L86.8575 65.572L84.2655 67.894H82.7895L80.8455 65.572L81.7995 64.564L83.6715 66.148L86.0295 64.564ZM77.2058 79L79.0778 65.662L76.6838 65.41L76.0358 70.162C75.5558 69.502 74.9018 69.172 74.0738 69.172C73.1498 69.172 72.3698 69.508 71.7338 70.18C71.0978 70.84 70.6238 71.674 70.3118 72.682C69.9998 73.678 69.8438 74.686 69.8438 75.706C69.8438 76.834 70.0718 77.716 70.5278 78.352C70.9958 78.976 71.6618 79.288 72.5258 79.288C73.5458 79.288 74.4038 78.748 75.0998 77.668L75.0638 79H77.2058ZM73.2638 71.764C73.5998 71.26 74.0258 71.008 74.5418 71.008C74.8178 71.008 75.0578 71.074 75.2618 71.206C75.4658 71.338 75.6458 71.542 75.8018 71.818L75.2618 75.706C74.9258 76.27 74.6078 76.702 74.3078 77.002C74.0078 77.302 73.6838 77.452 73.3358 77.452C72.6638 77.452 72.3278 76.876 72.3278 75.724C72.3278 75.052 72.3998 74.35 72.5438 73.618C72.6998 72.886 72.9398 72.268 73.2638 71.764ZM58.1367 69.172C58.7247 69.172 59.1927 69.376 59.5407 69.784C59.9007 70.192 60.0807 70.744 60.0807 71.44C60.0807 71.632 60.0627 71.836 60.0267 72.052L59.0367 79H56.6247L57.5427 72.448C57.5667 72.208 57.5787 72.058 57.5787 71.998C57.5787 71.494 57.4047 71.242 57.0567 71.242C56.5287 71.242 55.9407 71.968 55.2927 73.42L54.4827 79H52.0707L52.9887 72.448C53.0127 72.208 53.0247 72.058 53.0247 71.998C53.0247 71.494 52.8447 71.242 52.4847 71.242C51.9567 71.242 51.3687 71.986 50.7207 73.474L49.9467 79H47.5347L48.8667 69.46H50.9727L50.9007 71.026C51.6927 69.79 52.5867 69.172 53.5827 69.172C54.0987 69.172 54.5187 69.328 54.8427 69.64C55.1787 69.952 55.3887 70.39 55.4727 70.954C56.2287 69.766 57.1167 69.172 58.1367 69.172ZM66.217 69.19C67.177 69.19 67.927 69.424 68.467 69.892C69.019 70.36 69.295 70.954 69.295 71.674C69.295 72.898 68.779 73.798 67.747 74.374C66.715 74.938 65.353 75.316 63.661 75.508V75.562C63.661 76.798 64.159 77.416 65.155 77.416C65.515 77.416 65.869 77.35 66.217 77.218C66.565 77.074 66.949 76.858 67.369 76.57L68.251 78.046C67.183 78.874 66.043 79.288 64.831 79.288C63.679 79.288 62.791 78.964 62.167 78.316C61.543 77.656 61.231 76.726 61.231 75.526C61.231 74.482 61.405 73.48 61.753 72.52C62.101 71.548 62.647 70.75 63.391 70.126C64.147 69.502 65.089 69.19 66.217 69.19ZM63.805 73.942C65.857 73.738 66.883 73.018 66.883 71.782C66.883 71.506 66.811 71.29 66.667 71.134C66.535 70.966 66.313 70.882 66.001 70.882C65.401 70.882 64.921 71.176 64.561 71.764C64.201 72.352 63.949 73.078 63.805 73.942ZM87.2974 78.694C87.6694 79.09 88.1794 79.288 88.8274 79.288C89.3914 79.288 89.8894 79.138 90.3214 78.838C90.7534 78.538 91.1674 78.106 91.5634 77.542L91.4734 79H93.5614L94.8934 69.46H92.4994L91.6174 75.652C91.3174 76.132 91.0174 76.522 90.7174 76.822C90.4174 77.122 90.1114 77.272 89.7994 77.272C89.4154 77.272 89.2234 77.02 89.2234 76.516C89.2234 76.36 89.2294 76.24 89.2414 76.156L90.1774 69.46H87.7654L86.7934 76.426C86.7574 76.642 86.7394 76.846 86.7394 77.038C86.7394 77.734 86.9254 78.286 87.2974 78.694ZM99.8027 69.19C100.427 69.19 101.003 69.298 101.531 69.514C102.059 69.718 102.521 70.006 102.917 70.378L101.837 71.71C101.189 71.218 100.529 70.972 99.8567 70.972C99.4487 70.972 99.1307 71.062 98.9027 71.242C98.6747 71.41 98.5607 71.65 98.5607 71.962C98.5607 72.226 98.6747 72.448 98.9027 72.628C99.1307 72.796 99.5627 73 100.199 73.24C100.931 73.528 101.477 73.888 101.837 74.32C102.209 74.74 102.395 75.292 102.395 75.976C102.395 76.624 102.227 77.2 101.891 77.704C101.567 78.196 101.105 78.586 100.505 78.874C99.9167 79.15 99.2327 79.288 98.4527 79.288C97.7087 79.288 97.0367 79.156 96.4367 78.892C95.8487 78.616 95.3507 78.256 94.9427 77.812L96.2207 76.516C96.9047 77.164 97.6547 77.488 98.4707 77.488C98.9507 77.488 99.3167 77.368 99.5687 77.128C99.8207 76.888 99.9467 76.6 99.9467 76.264C99.9467 75.928 99.8327 75.664 99.6047 75.472C99.3887 75.28 98.9567 75.058 98.3087 74.806C97.5647 74.53 97.0187 74.194 96.6707 73.798C96.3347 73.39 96.1667 72.862 96.1667 72.214C96.1667 71.674 96.3107 71.176 96.5987 70.72C96.8987 70.252 97.3247 69.88 97.8767 69.604C98.4287 69.328 99.0707 69.19 99.8027 69.19ZM106.079 76.912L106.097 76.714L107.663 65.392L105.233 65.662L103.685 76.75C103.661 76.882 103.649 77.068 103.649 77.308C103.649 77.932 103.817 78.418 104.153 78.766C104.501 79.102 104.981 79.27 105.593 79.27C106.169 79.27 106.691 79.162 107.159 78.946L106.871 77.236C106.679 77.284 106.535 77.308 106.439 77.308C106.199 77.308 106.079 77.176 106.079 76.912ZM111.78 79.288C110.664 79.288 109.794 78.952 109.17 78.28C108.558 77.596 108.252 76.648 108.252 75.436C108.252 74.416 108.42 73.432 108.756 72.484C109.092 71.524 109.626 70.738 110.358 70.126C111.102 69.502 112.032 69.19 113.148 69.19C114.264 69.19 115.128 69.526 115.74 70.198C116.352 70.87 116.658 71.812 116.658 73.024C116.658 74.032 116.49 75.016 116.154 75.976C115.818 76.924 115.284 77.716 114.552 78.352C113.82 78.976 112.896 79.288 111.78 79.288ZM111.924 77.434C112.488 77.434 112.938 77.176 113.274 76.66C113.61 76.132 113.844 75.508 113.976 74.788C114.12 74.068 114.192 73.372 114.192 72.7C114.192 71.584 113.79 71.026 112.986 71.026C112.434 71.026 111.984 71.284 111.636 71.8C111.3 72.304 111.06 72.916 110.916 73.636C110.784 74.344 110.718 75.028 110.718 75.688C110.718 76.288 110.814 76.732 111.006 77.02C111.21 77.296 111.516 77.434 111.924 77.434ZM122.032 79L126.01 69.46H123.472L120.844 77.074L120.304 69.46H117.73L119.134 79H122.032ZM123.671 81.16C124.127 80.956 124.493 80.746 124.769 80.53C125.045 80.314 125.267 80.02 125.435 79.648C125.615 79.288 125.747 78.802 125.831 78.19L127.055 69.46H129.467L128.243 78.172C128.111 79.144 127.865 79.93 127.505 80.53C127.157 81.13 126.725 81.598 126.209 81.934C125.705 82.282 125.057 82.618 124.265 82.942L123.671 81.16ZM128.567 67.498C128.171 67.498 127.853 67.378 127.613 67.138C127.385 66.898 127.271 66.592 127.271 66.22C127.271 65.752 127.421 65.368 127.721 65.068C128.033 64.756 128.423 64.6 128.891 64.6C129.287 64.6 129.599 64.72 129.827 64.96C130.067 65.188 130.187 65.494 130.187 65.878C130.187 66.346 130.031 66.736 129.719 67.048C129.407 67.348 129.023 67.498 128.567 67.498ZM138.825 70.072C137.757 69.484 136.641 69.19 135.477 69.19C134.301 69.19 133.329 69.52 132.561 70.18C131.793 70.828 131.229 71.65 130.869 72.646C130.521 73.642 130.347 74.674 130.347 75.742C130.347 76.834 130.587 77.698 131.067 78.334C131.547 78.97 132.225 79.288 133.101 79.288C133.641 79.288 134.115 79.156 134.523 78.892C134.931 78.628 135.315 78.25 135.675 77.758C135.867 78.634 136.503 79.132 137.583 79.252L138.303 77.632C138.135 77.56 138.015 77.47 137.943 77.362C137.883 77.254 137.853 77.11 137.853 76.93C137.853 76.798 137.871 76.636 137.907 76.444L138.825 70.072ZM133.929 71.692C134.313 71.212 134.793 70.972 135.369 70.972C135.681 70.972 135.981 71.026 136.269 71.134L135.567 76.084C135.279 76.528 134.997 76.87 134.721 77.11C134.445 77.338 134.151 77.452 133.839 77.452C133.503 77.452 133.251 77.326 133.083 77.074C132.915 76.81 132.831 76.378 132.831 75.778C132.831 75.01 132.921 74.26 133.101 73.528C133.281 72.784 133.557 72.172 133.929 71.692ZM145.89 69.172C146.502 69.172 146.988 69.376 147.348 69.784C147.72 70.192 147.906 70.75 147.906 71.458C147.906 71.662 147.888 71.872 147.852 72.088L146.862 79H144.45L145.368 72.448C145.392 72.232 145.404 72.094 145.404 72.034C145.404 71.518 145.212 71.26 144.828 71.26C144.24 71.26 143.574 72.004 142.83 73.492L142.056 79H139.644L140.976 69.46H143.082L143.01 71.098C143.862 69.814 144.822 69.172 145.89 69.172ZM154.757 69.514C154.229 69.298 153.653 69.19 153.029 69.19C152.297 69.19 151.655 69.328 151.103 69.604C150.551 69.88 150.125 70.252 149.825 70.72C149.537 71.176 149.393 71.674 149.393 72.214C149.393 72.862 149.561 73.39 149.897 73.798C150.245 74.194 150.791 74.53 151.535 74.806C152.183 75.058 152.615 75.28 152.831 75.472C153.059 75.664 153.173 75.928 153.173 76.264C153.173 76.6 153.047 76.888 152.795 77.128C152.543 77.368 152.177 77.488 151.697 77.488C150.881 77.488 150.131 77.164 149.447 76.516L148.169 77.812C148.577 78.256 149.075 78.616 149.663 78.892C150.263 79.156 150.935 79.288 151.679 79.288C152.459 79.288 153.143 79.15 153.731 78.874C154.331 78.586 154.793 78.196 155.117 77.704C155.453 77.2 155.621 76.624 155.621 75.976C155.621 75.292 155.435 74.74 155.063 74.32C154.703 73.888 154.157 73.528 153.425 73.24C152.789 73 152.357 72.796 152.129 72.628C151.901 72.448 151.787 72.226 151.787 71.962C151.787 71.65 151.901 71.41 152.129 71.242C152.357 71.062 152.675 70.972 153.083 70.972C153.755 70.972 154.415 71.218 155.063 71.71L156.143 70.378C155.747 70.006 155.285 69.718 154.757 69.514ZM160.241 70.81C161.057 69.73 162.017 69.19 163.121 69.19C163.817 69.19 164.375 69.394 164.795 69.802C165.215 70.198 165.425 70.72 165.425 71.368C165.425 72.1 165.221 72.742 164.813 73.294C164.405 73.846 163.775 74.32 162.923 74.716L164.525 79H161.933L160.385 74.374C161.321 74.062 161.981 73.696 162.365 73.276C162.761 72.856 162.959 72.352 162.959 71.764C162.959 71.5 162.893 71.296 162.761 71.152C162.641 71.008 162.461 70.936 162.221 70.936C161.861 70.936 161.477 71.122 161.069 71.494C160.661 71.854 160.271 72.394 159.899 73.114L159.089 79H156.677L158.549 65.662L160.997 65.392L160.241 70.81ZM174.439 70.072C173.371 69.484 172.255 69.19 171.091 69.19C169.915 69.19 168.943 69.52 168.175 70.18C167.407 70.828 166.843 71.65 166.483 72.646C166.135 73.642 165.961 74.674 165.961 75.742C165.961 76.834 166.201 77.698 166.681 78.334C167.161 78.97 167.839 79.288 168.715 79.288C169.255 79.288 169.729 79.156 170.137 78.892C170.545 78.628 170.929 78.25 171.289 77.758C171.481 78.634 172.117 79.132 173.197 79.252L173.917 77.632C173.749 77.56 173.629 77.47 173.557 77.362C173.497 77.254 173.467 77.11 173.467 76.93C173.467 76.798 173.485 76.636 173.521 76.444L174.439 70.072ZM169.543 71.692C169.927 71.212 170.407 70.972 170.983 70.972C171.295 70.972 171.595 71.026 171.883 71.134L171.181 76.084C170.893 76.528 170.611 76.87 170.335 77.11C170.059 77.338 169.765 77.452 169.453 77.452C169.117 77.452 168.865 77.326 168.697 77.074C168.529 76.81 168.445 76.378 168.445 75.778C168.445 75.01 168.535 74.26 168.715 73.528C168.895 72.784 169.171 72.172 169.543 71.692Z" fill="#4C587B"/>
</svg>
