<svg width="19" height="21" viewBox="0 0 19 21" fill="none" xmlns="http://www.w3.org/2000/svg">
<path d="M14.9932 11.064C13.5425 12.9285 10.8943 15.724 9.09385 17.4701C7.29394 15.724 4.26213 13.2975 2.85061 11.4036C2.5131 10.9509 7.67385 5.03742 9.25969 3.0316C10.8445 5.03742 15.8495 9.96348 14.9932 11.064ZM10.2781 0.655745C9.48435 -0.022994 8.80932 -0.136561 7.90963 0.655745C5.93117 2.39765 -0.436058 9.96028 0.0418684 11.3417C1.23244 14.7824 5.87924 18.2363 8.24768 20.6809C8.53486 20.9774 8.82786 21.0472 9.09385 20.9721C9.35984 21.0472 16.9553 14.7824 18.1458 11.3417C18.6243 9.96028 12.2814 2.36832 10.2781 0.655745" fill="#D5DEEB"/>
</svg>
