<svg width="19" height="21" viewBox="0 0 19 21" fill="none" xmlns="http://www.w3.org/2000/svg">
<path d="M7.26068 5.91498C6.19886 6.84218 5.29228 7.78751 4.51128 8.72804C3.66193 7.03626 3.07538 5.23091 2.83536 3.42929C4.24847 4.05738 5.77021 4.90567 7.26068 5.91498ZM9.48394 7.57424C10.7932 8.64753 12.015 9.83493 13.0313 11.1023C12.0304 12.5163 10.8324 13.7789 9.48394 14.8063C8.13387 13.7789 6.93694 12.5163 5.93605 11.1023C6.95231 9.83493 8.17467 8.64753 9.48394 7.57424V7.57424ZM16.1309 3.42929C15.8925 5.23091 15.3059 7.03626 14.4561 8.72804C13.6751 7.78751 12.769 6.84218 11.7072 5.91498C13.1966 4.90567 14.7183 4.05738 16.1309 3.42929ZM11.9149 16.3067C12.9009 15.4562 13.7975 14.4976 14.6113 13.4718C15.3139 14.7668 15.777 16.1073 15.8755 17.4621C14.4905 17.3202 13.1643 16.9086 11.9149 16.3067V16.3067ZM3.09181 17.4621C3.18983 16.1073 3.65292 14.7668 4.35603 13.4718C5.16989 14.4976 6.06692 15.4562 7.05192 16.3067C5.80359 16.9086 4.47684 17.3202 3.09181 17.4621ZM0.0986774 20.104C1.78519 21.462 7.52984 19.26 9.23649 18.2469C9.32074 18.1968 9.39969 18.1365 9.48394 18.0843C9.56765 18.1365 9.64713 18.1968 9.73138 18.2469C11.437 19.26 17.1816 21.462 18.8681 20.104C19.105 19.9136 19.1431 15.8689 16.2157 11.1641C16.7095 10.3446 17.1583 9.50062 17.5366 8.63367C18.4994 6.4263 18.9757 3.96194 18.9672 1.5493C18.9667 1.34669 18.9275 1.16967 18.8623 1.01452C18.6912 0.348577 18.0845 -0.227259 17.2595 0.0894505C14.145 1.28378 11.5912 2.68284 9.48394 4.17361C7.37672 2.68284 4.82177 1.28378 1.70784 0.0894505C0.882328 -0.227259 0.275118 0.348577 0.105036 1.01452C0.0403938 1.16967 0.000654956 1.34669 0.000125105 1.5493C-0.00888237 3.96194 0.468514 6.4263 1.43072 8.63367C1.80957 9.50062 2.25782 10.3446 2.75058 11.1641C-0.175256 15.8689 -0.138166 19.9136 0.0986774 20.104" fill="#D5DEEB"/>
</svg>
