<svg width="31" height="19" viewBox="0 0 31 19" fill="none" xmlns="http://www.w3.org/2000/svg">
<path d="M4.67911 11.3725C8.64311 13.6779 13.3991 4.55252 12.0258 2.17918C11.3658 1.03918 0.843108 -2.46348 0.240442 2.89918C0.0164416 4.85918 1.91644 6.23918 3.89511 6.28185C3.01911 8.21118 2.99777 10.3965 4.67911 11.3725Z" fill="#4C587B"/>
<path d="M27.3275 11.4869C28.8768 10.2683 28.5275 7.94826 27.1715 6.5136C29.1595 5.77893 30.7301 4.26026 30.2448 2.37893C29.1021 -2.05974 19.2595 0.953596 18.5408 3.59893C18.1915 4.87226 23.0861 14.8203 27.3275 11.4869Z" fill="#4C587B"/>
<path d="M14.8835 16.6875C16.1742 18.3675 18.0875 19.4181 19.7435 18.4008C23.6449 15.9941 17.8502 7.49014 15.1155 7.58347C13.7889 7.6248 5.73955 15.2448 10.1822 18.3128C11.7995 19.4328 13.9129 18.4115 14.8835 16.6875Z" fill="#4C587B"/>
</svg>
