<svg width="3441" height="815" viewBox="0 0 3441 815" fill="none" xmlns="http://www.w3.org/2000/svg">
<path d="M1062 53.8942C920 53.8942 831.833 148.564 760 182.107C669.667 221.39 468.2 256.26 385 81.4779C301.8 -93.3045 136 182.107 0 182.107V815H760H2680H3441V182.107C3313 182.107 3185 0.770156 3009 0.770111C2909.83 0.770085 2811.37 65.8722 2680 81.4779C2553 96.5651 2492.34 102.445 2352.5 81.4779C2204.15 59.2353 2114 -7.91368 1977 0.770111C1840 9.4539 1765.22 74.4745 1572.5 97.313C1300.51 129.546 1204 53.8942 1062 53.8942Z" fill="url(#paint0_linear_311_2404)"/>
<defs>
<linearGradient id="paint0_linear_311_2404" x1="1720" y1="-6.395e-07" x2="1720" y2="815" gradientUnits="userSpaceOnUse">
<stop stop-color="#C5DBFC"/>
<stop offset="1" stop-color="#EAF2FE" stop-opacity="0"/>
</linearGradient>
</defs>
</svg>
