<svg width="25" height="24" viewBox="0 0 25 24" fill="none" xmlns="http://www.w3.org/2000/svg">
<path d="M16.6165 5.82C16.6165 5.82 17.1265 6.32 16.6165 5.82C15.9329 5.03962 15.5562 4.03743 15.5565 3H12.4665V15.4C12.4427 16.071 12.1594 16.7066 11.6763 17.1729C11.1932 17.6393 10.548 17.8999 9.87651 17.9C8.45651 17.9 7.27651 16.74 7.27651 15.3C7.27651 13.58 8.93651 12.29 10.6465 12.82V9.66C7.19651 9.2 4.17651 11.88 4.17651 15.3C4.17651 18.63 6.93651 21 9.86651 21C13.0065 21 15.5565 18.45 15.5565 15.3V9.01C16.8095 9.90985 18.3139 10.3926 19.8565 10.39V7.3C19.8565 7.3 17.9765 7.39 16.6165 5.82Z" fill="#DDE9FB"/>
</svg>
