<svg width="200" height="200" viewBox="0 0 247 242" fill="none" xmlns="http://www.w3.org/2000/svg">
<path d="M126.229 125.074C131.387 127.287 133.986 133.065 131.907 138.28C129.829 143.493 123.318 147.15 118.703 143.958C107.131 135.954 117.811 138.363 119.889 133.15C121.967 127.936 117.075 121.148 126.229 125.074Z" fill="#E64313"/>
<path d="M214.096 176.938C219.586 175.413 225.992 167.787 229.653 163.516C233.008 158.941 238.193 151.314 238.804 145.519C230.872 148.875 220.502 148.569 213.79 141.858C221.111 138.198 226.602 133.317 229.348 125.996C222.836 127.336 217.647 125.912 212.273 124.288C218.325 119.092 221.609 110.881 221.111 101.898C215.621 110.134 202.503 105.889 193.963 109.244C189.691 111.38 181.094 114.217 182.066 126.911C184.226 125.733 186.832 125.392 189.183 125.897C188.704 127.262 188.789 128.998 189.691 131.181C192.742 138.198 203.723 141.248 203.114 150.399C202.503 159.246 190.303 158.635 183.896 158.941C187.252 164.432 194.267 167.177 196.708 173.583C199.148 180.294 195.182 187.919 189.691 191.886C183.285 196.462 174.44 198.596 167.424 193.716C162.849 190.665 159.798 184.869 155.527 180.904L155.832 181.208C149.731 190.055 155.222 202.561 156.746 212.018C158.273 221.779 157.967 231.54 158.273 240.997C165.898 236.116 173.219 233.676 175.965 224.22C177.794 217.204 177.794 208.662 174.44 202.561C192.436 211.103 227.212 209.578 239.414 191.58C229.041 192.19 219.586 185.48 214.096 176.938Z" fill="#FEDA7C"/>
<path d="M46 92.7463C57.4392 90.001 70.2936 107.666 77.1571 114.988C84.0205 122.309 100.981 138.111 84.0514 141.314C73.0698 143.145 65.0346 141.632 52.0422 127.288C47.921 122.739 37.7494 96.4068 46 92.7463Z" fill="#E64313"/>
<path d="M139.768 130.874C139.997 123.552 150.178 124.582 154.982 123.209C162.303 121.379 170.997 116.117 174.2 109.025C179.691 120.235 173.514 127.785 165.278 135.564C170.311 139.682 178.319 141.055 184.495 138.309C186.326 151.579 173.056 157.298 162.303 158.213C160.437 169.331 180.606 173.999 184.953 176.059C167.987 190.439 156.319 168.874 151.78 171.254C152.923 179.262 150.635 188.642 146.746 195.734C143.086 202.826 138.017 206.32 132.297 211.811C129.781 214.099 125.927 219.07 124.097 221.815C123.868 217.24 126.072 208.876 127.035 204.564C129.324 194.318 135.271 192.438 135.729 183.517C135.958 178.255 133.934 173.084 131.875 168.279C127.986 172.627 116.776 176.287 111.514 171.94C124.29 166.587 121.58 153.867 121.58 153.867C119.293 156.154 107.817 152.837 107.131 150.092C113.766 149.863 127.951 150.31 133.67 146.192C137.559 143.447 141.598 136.136 139.768 130.874Z" fill="#E26C1A"/>
<path d="M49.3251 152.363C46.8798 156.438 44.9779 162.757 46.6079 167.513C48.5104 173.219 52.8167 177.792 58.769 178.414C64.751 179.04 71.0033 174.829 71.4538 170.105C72.1679 162.598 68.3259 157.863 58.7648 160.275C63.3198 159.645 68.4491 166.527 60.0157 170.462C56.8694 171.93 48.2611 166.937 49.3251 152.363Z" fill="#7EB7AA"/>
<path d="M30.3469 161.442C29.2061 166.057 26.099 171.877 21.5887 174.098C16.2166 176.804 9.93818 177.007 5.27965 173.253C0.596714 169.476 -0.86607 162.081 2.14698 158.413C6.93465 152.589 12.9976 151.942 18.0751 160.394C15.29 156.735 6.80075 157.998 10.0036 166.734C11.1998 169.994 20.824 172.524 30.3469 161.442Z" fill="#7EB7AA"/>
<path d="M59.2883 207.338C59.2883 208.887 57.9796 210.144 56.3645 210.144C54.7494 210.144 53.4401 208.887 53.4401 207.338C53.4401 205.786 54.7494 204.529 56.3645 204.529C57.9796 204.529 59.2883 205.786 59.2883 207.338Z" fill="#018C96"/>
<path d="M38.2313 212.951C38.2313 214.5 36.9226 215.757 35.3075 215.757C33.693 215.757 32.3831 214.5 32.3831 212.951C32.3831 211.4 33.693 210.144 35.3075 210.144C36.9226 210.144 38.2313 211.4 38.2313 212.951Z" fill="#018C96"/>
<path d="M26.2204 207.338C26.2204 208.887 24.9111 210.144 23.2966 210.144C21.682 210.144 20.3722 208.887 20.3722 207.338C20.3722 205.786 21.682 204.529 23.2966 204.529C24.9111 204.529 26.2204 205.786 26.2204 207.338Z" fill="#018C96"/>
<path d="M40.1863 166.885C39.03 176.26 51.522 190.8 45.3745 196.602C37.6249 203.916 29.3749 198.544 29.3767 187.598C29.3785 179.988 36.3478 168.489 40.1863 166.885Z" fill="#E64313"/>
<path d="M77.1001 71.2397C90.8989 51.81 119.191 56.5881 132.299 81.1085C139.636 94.8323 156.421 91.0772 156.421 91.0772C158.784 97.7912 153.685 105.807 146.617 109.416C126.816 119.53 115.814 109.342 107.184 103.419C94.172 94.4884 91.1019 79.2541 82.9714 79.3249C75.1892 79.3922 77.1001 71.2397 77.1001 71.2397Z" fill="#E64313"/>
<path d="M77.6687 86.0832C68.8373 93.556 73.1845 107.211 79.8421 114.277C88.9461 123.924 106.474 127.321 112.724 112.782C108.377 112.103 104.708 112.103 100.903 109.385C95.3328 105.445 92.6143 98.9221 89.8977 92.8086C87.9957 88.7327 82.8325 83.6373 77.6687 86.0832Z" fill="#FEDA7C"/>
<path d="M61.7788 26.7324C53.3544 33.5256 40.5143 26.8681 32.4976 22.9279C32.3922 39.3911 50.2236 38.4032 56.0146 34.7355C61.107 31.51 61.0992 28.0905 61.7788 26.7324Z" fill="#E64313"/>
<path d="M34.878 72.8194C34.7417 68.3352 28.7591 62.5876 20.7429 65.5935C1.59697 72.7736 12.3661 98.1324 14.6287 103.917C22.6449 124.41 13.8854 136.001 8.72165 138.99C11.4395 141.436 17.6132 139.807 20.4073 138.311C46.4226 124.378 35.9819 95.9466 34.8738 86.9182C34.3299 82.4905 34.878 72.8194 34.878 72.8194Z" fill="#E26C1A"/>
<path d="M83.3375 23.3187C86.0547 19.1059 80.3476 16.5243 77.4947 14.8937C73.6895 12.5841 69.6136 10.6821 68.255 6.33365C67.1683 11.0898 68.9346 15.3014 72.7391 18.5632C75.8641 21.1442 79.94 21.4167 83.3375 23.3187Z" fill="#E64313"/>
<path d="M69.1381 24.8129C69.1381 20.6001 60.6465 15.4726 57.2359 14.8257C48.5841 13.1862 45.5634 9.59527 41.3523 3.47991C40.9441 12.8559 43.6584 18.8052 52.2215 23.046C61.1892 27.4879 65.0348 24.2695 69.1381 24.8129Z" fill="#E64313"/>
<path d="M74.6034 58.6616C69.1379 52.5302 65.6095 31.6483 72.8097 27.4879C81.196 22.6431 85.5671 32.5826 85.5671 32.5826C87.8559 32.923 90.5387 33.2355 92.7126 34.1871C84.9673 34.3686 74.6034 35.2999 74.6034 58.6616Z" fill="#E26C1A"/>
<path d="M56.2253 173.03C61.8176 174.693 68.1109 171.704 68.7042 165.969C69.4659 168.718 68.9518 171.696 66.5808 174.052C62.7192 177.888 55.6832 177.16 51.415 174.469C47.6563 172.098 46.2012 167.584 46.2441 163.347C46.2733 160.453 47.0201 157.411 48.4466 154.804C46.8559 161.735 48.8441 170.836 56.2253 173.03ZM5.07666 169.832C2.11062 166.005 2.47007 160.234 5.87351 156.834C4.41311 160.724 5.79615 164.904 9.09604 167.598C15.0769 172.482 23.4424 169.702 29.4471 166.092C23.4269 172.695 11.8645 178.59 5.07666 169.832ZM111.631 150.739C106.033 155.115 100.187 155.812 93.5864 153.473C88.4571 151.654 83.7379 148.82 78.4926 147.298C76.1258 146.611 73.5538 146.101 70.9186 145.83C70.8829 145.8 70.8406 145.778 70.7889 145.767C61.5902 143.694 52.5422 145.144 44.7188 150.464C39.1272 154.267 34.9501 159.53 30.6694 164.667C25.0962 168.294 18.0203 171.059 11.5527 168.155C7.23036 166.215 4.15423 160.9 6.38828 156.366C10.5904 152.804 16.6831 154.969 19.4724 159.175C20.6156 160.896 19.6789 162.634 17.6835 162.703C15.5125 162.779 14.6062 160.618 14.5062 158.796C14.4782 158.268 13.8379 158.471 13.8629 158.939C14.0057 161.55 15.65 164.046 18.569 163.387C21.2732 162.777 20.8084 159.89 19.6533 158.149C16.5314 153.444 10.5862 152.801 6.57217 155.46C6.55432 155.447 6.52635 155.464 6.49183 155.509C4.67555 156.739 3.26692 158.651 2.71466 161.178C0.997167 169.046 7.44282 175.403 15.1787 175.005C23.5805 174.574 29.0483 167.66 33.9741 161.737C37.8703 157.054 42.1771 152.697 47.476 149.609C52.7112 146.559 58.5379 145.389 64.4128 145.695C61.0243 145.918 57.9124 147.168 54.797 147.986C46.597 150.138 44.8932 161.668 45.69 166.735C46.9666 174.842 55.4761 179.149 63.1107 176.936C67.0546 175.791 70.1706 171.99 69.8962 167.793C69.623 163.612 66.6659 159.723 62.7793 158.112C59.4931 156.751 54.5245 157.818 54.309 162.092C54.1484 165.279 57.9678 167.639 60.3822 165.335C60.7648 164.97 60.2738 164.369 59.8716 164.752C58.5397 166.024 57.0727 165.512 55.9641 164.282C54.7066 162.886 54.9666 161.028 56.1819 159.726C58.4861 157.257 61.9015 158.344 64.295 159.962C65.9697 161.094 67.2855 162.646 68.1055 164.366C68.09 164.428 68.0823 164.489 68.0877 164.547C68.7488 171.234 61.4248 173.466 56.0944 171.881C48.7424 169.695 47.2707 159.322 49.5595 153.064C50.0296 152.428 50.5325 151.821 51.1026 151.282C54.512 148.058 59.5799 147.009 64.098 146.672C68.4126 146.35 72.8188 146.794 77.0227 147.79C82.0847 148.99 86.7087 151.57 91.4809 153.565C94.8409 154.968 98.3419 155.964 102.009 155.759C105.815 155.547 109.209 153.616 112.143 151.322C112.562 150.995 112.064 150.402 111.631 150.739Z" fill="currentColor"/>
<path d="M54.2417 209.334C52.0951 209.971 50.3717 207.177 51.6815 205.485C52.8271 204.845 53.7882 204.881 54.9124 205.468C56.7227 206.411 56.049 208.796 54.2417 209.334ZM46.8867 202.247C44.5771 204.171 41.4492 204.904 38.498 204.793C38.3272 204.786 38.1653 204.761 37.9975 204.749C38.3016 203.26 38.5962 201.77 38.8765 200.275C42.0187 200.423 44.5235 198.589 45.8726 195.976C46.8236 197.416 47.7228 198.89 48.5958 200.381C48.1287 201.053 47.5669 201.682 46.8867 202.247ZM28.903 198.98C29.7915 197.593 30.7104 196.225 31.6744 194.893C32.3892 197.183 33.94 199.055 36.868 199.935C37.2536 200.052 37.6315 200.138 38.0029 200.197C37.7261 201.688 37.4322 203.177 37.1304 204.663C33.4223 204.12 30.5562 201.973 28.903 198.98ZM33.7859 181.142C35.4969 176.126 37.8577 171.32 40.4458 166.694C39.8364 173.152 42.9316 179.317 45.0216 185.279C46.0886 188.325 47.1539 191.863 45.9762 195.016C45.6316 194.504 45.2954 193.984 44.9365 193.483C44.827 193.329 44.4628 193.912 44.5753 194.07C44.9567 194.603 45.3174 195.149 45.681 195.694C44.4086 198.253 41.7443 199.547 39.0181 199.528C39.2466 198.289 39.4662 197.048 39.6686 195.804C39.7049 195.582 38.7575 195.882 38.7122 196.167C38.5319 197.271 38.3403 198.373 38.1403 199.473C37.7809 199.433 37.4232 199.377 37.0703 199.292C34.1299 198.582 32.6409 196.745 32.022 194.431C32.4535 193.847 32.8796 193.258 33.3289 192.689C33.5205 192.449 32.5874 192.732 32.4296 192.93C32.2327 193.18 32.0488 193.442 31.8548 193.696C31.1097 189.657 32.6552 184.457 33.7859 181.142ZM36.2122 213.946C34.2549 213.309 34.0329 209.775 36.3056 209.408C39.2092 210.02 39.8209 215.119 36.2122 213.946ZM27.0564 206.914C26.9124 209.028 24.7444 208.657 23.6381 207.553C22.2027 206.119 23.3911 203.508 25.3359 203.754C26.6279 204.437 27.1552 205.464 27.0564 206.914ZM51.8606 204.863C50.9465 203.219 50.0194 201.572 49.0648 199.941C50.4937 197.526 51.056 194.538 50.5425 191.436C50.5246 191.321 50.1068 191.759 50.139 191.958C50.5984 194.731 50.3193 197.49 48.9743 199.787C48.0852 198.272 47.1557 196.783 46.1856 195.325C46.829 193.804 47.1063 192.08 46.9111 190.352C45.9393 181.752 39.5865 174.39 41.1409 165.38C41.1736 165.189 41.0897 165.103 40.979 165.091C40.8832 165.046 40.7624 165.07 40.6713 165.232C37.2977 171.144 34.2775 177.355 32.3755 183.906C31.4537 187.081 30.73 190.978 31.4769 194.198C30.4694 195.546 29.5047 196.927 28.5834 198.339C27.7057 196.503 27.2534 194.397 27.32 192.167C27.326 191.946 26.9076 192.431 26.9023 192.6C26.8332 194.934 27.3188 197.065 28.224 198.898C27.3605 200.239 26.516 201.592 25.6912 202.953C25.6382 203.043 25.599 203.101 25.5597 203.162C25.4276 203.164 25.296 203.168 25.1645 203.175C24.4189 203.215 23.4554 203.546 22.9335 204.107C20.7655 206.439 23.1388 209.594 25.9989 208.957C28.8584 208.321 28.3692 204.442 26.2655 203.254C27.0088 202.004 27.7741 200.761 28.5555 199.525C30.3051 202.591 33.3181 204.681 37.0168 205.228C36.7591 206.483 36.496 207.737 36.23 208.991C35.5332 209.198 34.8892 209.566 34.3477 210.055C32.7802 211.468 34.1335 214.087 35.8057 214.631C39.8739 215.954 41.2706 209.82 37.1358 208.873C37.3863 207.696 37.6339 206.519 37.8779 205.34C38.7759 205.412 39.7079 205.4 40.6696 205.286C44.214 204.864 46.9676 203.076 48.6929 200.546C49.307 201.596 49.914 202.649 50.5145 203.702C50.7805 204.169 51.0453 204.639 51.3078 205.107C51.3649 205.209 51.4137 205.263 51.4583 205.299C51.0215 205.918 50.768 206.615 50.7002 207.368C50.5645 208.866 52.2195 209.734 53.4276 210.005C54.6255 210.274 55.7033 209.103 56.2668 208.216C57.9778 205.528 53.9923 203.739 51.8606 204.863Z" fill="currentColor"/>
<path d="M92.6996 144.412C99.7398 144.459 107.507 143.25 113.493 139.305C114.194 138.843 113.07 138.971 112.704 139.132C98.2972 145.44 76.0478 146.288 59.3383 130.062C48.4691 119.509 44.5807 103.99 43.9713 89.2598C43.7594 84.1418 43.985 79.0102 44.4521 73.9118C44.9128 68.8671 45.3876 63.5867 46.8992 58.7311C49.8206 49.348 55.5051 39.7536 62.2097 32.5861C67.862 26.5404 82.3244 21.9711 87.0157 31.3709C86.9479 31.3727 86.88 31.3691 86.8122 31.3721C86.5224 31.3816 86.2956 32.1326 86.6265 32.1225C89.5717 32.0225 92.4384 32.5909 94.9515 34.0935C85.2494 36.812 77.3523 43.7379 75.6657 54.0506C75.0147 58.0319 75.2224 62.1507 76.5394 65.9802C77.432 68.5761 79.1394 71.5659 81.9489 72.3913C81.2479 73.0954 80.6557 73.8976 80.2219 74.8212C79.9255 75.4562 80.5123 76.2155 80.8962 75.3972C83.7539 69.2938 93.7631 68.9581 99.3756 69.6128C103.803 70.1287 108.08 71.6927 111.866 74.0273C116.442 76.8517 120.079 81.1722 123.557 85.2035C129.307 91.8687 134.401 100.287 142.375 104.539C145.315 106.108 149.958 107.386 153.243 106.248C154.788 105.713 156.159 104.759 157.281 103.567C155.392 107.724 151.785 110.345 146.793 110.295C139.182 110.218 132.145 104.756 126.888 99.8039C122.806 95.956 119.28 91.5438 116.066 86.9597C113.217 82.8968 110.305 79.1577 106.337 76.1078C99.7249 71.025 90.9571 69.2081 83.7872 74.1987C83.3694 74.4903 83.3093 75.8269 83.861 75.4425C92.5395 69.4009 102.532 73.7559 109.365 80.445C113.459 84.4536 116.24 89.5847 119.865 93.9933C123.241 98.0972 126.939 101.91 131.164 105.144C136.16 108.968 142.675 112.44 149.173 111.437C154.508 110.612 157.761 106.112 159.009 101.163C159.17 100.519 158.659 100.084 158.271 100.757C153.753 108.6 143.622 104.672 138.229 100.096C134.594 97.0111 131.638 93.1286 128.647 89.4466C125.196 85.1999 121.673 81.0282 117.794 77.1617C111.758 71.147 103.67 67.9774 95.1681 68.0625C91.1452 68.1024 85.8112 69.0242 82.4911 71.895C76.9815 70.3388 75.4515 60.3939 75.9538 55.3807C77.0506 44.4568 85.5107 37.1054 95.7537 34.5696C96.0084 34.5065 96.2631 34.0114 95.9989 33.8287C93.7482 32.2642 91.1559 31.5375 88.4719 31.3959C85.0655 23.5779 74.7766 24.733 68.2911 27.489C60.5094 30.796 55.4563 39.3347 51.4744 46.351C49.1755 50.4026 47.1331 54.6564 45.6888 59.0918C44.1165 63.9169 43.7237 69.2468 43.2399 74.2725C42.3407 83.6009 42.4335 93.0899 44.1552 102.32C46.5767 115.315 52.9105 127.523 63.757 135.38C66.9105 137.663 70.352 139.5 73.9661 140.905C70.7436 140.758 67.4913 144.172 67.3437 147.251C67.3163 147.82 67.6936 147.116 67.7055 146.879C67.8085 144.718 70.0681 142.607 72.348 141.971C70.6948 143.12 69.7265 145.086 69.6849 147.216C69.6753 147.751 70.7323 147.397 70.7418 146.914C70.7846 144.71 72.0582 142.547 74.0363 141.966C73.0407 144.022 72.8776 146.101 73.3585 148.428C73.4495 148.865 73.6495 148.519 73.6418 148.218C73.5055 142.642 75.0058 141.48 75.0534 141.307C77.9599 142.359 80.9676 143.137 84.0187 143.651C81.7454 144.698 79.8928 147.189 79.7821 149.494C79.7559 150.063 80.1326 149.359 80.1433 149.122C80.2475 146.961 82.5065 144.85 84.787 144.214C83.1338 145.363 82.1649 147.329 82.1239 149.458C82.1126 149.994 83.1707 149.639 83.1796 149.157C83.2236 146.953 84.496 144.79 86.4741 144.209C85.4785 146.265 85.3155 148.344 85.7969 150.671C85.888 151.109 86.1421 150.756 86.0808 150.462C85.5981 148.131 85.8897 146.118 87.0603 144.081C88.9349 144.289 90.8191 144.399 92.6996 144.412Z" fill="currentColor"/>
<path d="M150.505 117.667C147.331 119.804 143.019 119.754 139.413 119.078C133.43 117.958 128.037 114.53 123.443 110.681C116.106 104.534 111.312 96.4955 105.546 89.0096C101.422 83.6554 95.5025 76.7806 88.0535 77.1746C87.8487 77.1859 87.5815 77.803 87.766 77.7929C92.1508 77.5608 95.8435 79.9883 98.9999 82.7835C103.39 86.6702 106.781 91.6185 110.054 96.4389C115.343 104.229 121.919 111.56 130.168 116.274C134.891 118.972 140.569 120.779 146.04 119.855C148.998 119.355 152.059 117.758 153.249 114.855C153.284 114.769 153.372 114.515 153.186 114.573C151.268 115.161 148.786 114.939 146.773 114.634C140.387 113.664 134.519 110.267 129.427 106.453C125.187 103.277 121.389 99.5389 117.841 95.6183C113.705 91.0478 110.191 85.968 105.711 81.7081C100.334 76.5955 94.4402 74.452 87.1656 76.1093C86.9591 76.1569 86.7287 76.7622 86.8781 76.7277C90.3708 75.9314 93.8159 75.7326 97.2461 76.9306C101.622 78.4577 105.172 81.9391 108.252 85.2639C112.892 90.276 116.834 95.8242 121.702 100.649C125.294 104.211 129.232 107.444 133.528 110.119C138.237 113.049 143.681 115.337 149.293 115.516C150.405 115.552 151.544 115.492 152.634 115.255C152.703 115.24 152.751 115.224 152.793 115.211C152.784 115.221 152.777 115.231 152.769 115.246C152.304 116.269 151.42 117.05 150.505 117.667Z" fill="currentColor"/>
<path d="M135.307 127.953C138.345 127.505 142.033 126.026 143.566 123.162C143.587 123.124 143.76 122.706 143.595 122.746C141.868 123.164 139.833 122.683 138.172 122.239C132.472 120.721 127.385 117.141 122.902 113.438C118.722 109.987 114.946 106.06 111.374 101.992C107.263 97.309 103.635 92.2333 99.2805 87.7634C94.1619 82.5092 88.1775 78.7058 80.6559 80.3888C80.4773 80.4299 80.3167 81.0054 80.4625 80.9744C89.8581 78.8713 96.6441 85.4253 102.39 92.0203C110.031 100.791 116.839 110.002 126.36 116.901C130.499 119.901 135.332 122.674 140.49 123.339C141.364 123.452 142.271 123.496 143.149 123.375C143.152 123.375 143.153 123.374 143.155 123.374C143.153 123.377 143.153 123.377 143.152 123.378C142.632 124.146 141.883 124.747 141.127 125.265C131.525 131.84 119.218 124.017 112.51 117.033C105.95 110.205 101.8 101.833 97.1928 93.686C93.959 87.9664 89.4129 80.9417 81.8794 81.9873C81.7039 82.0111 81.5265 82.5931 81.686 82.5711C91.1649 81.2547 96.027 92.5386 99.6899 99.3461C104.498 108.28 110.198 117.12 118.545 123.145C123.357 126.618 129.327 128.836 135.307 127.953Z" fill="currentColor"/>
<path d="M82.524 85.2504C89.3833 86.0205 92.9385 91.9942 93.555 98.6577C93.8615 102.617 94.2168 109.073 99.1991 109.837C99.5877 109.898 100.368 109.545 99.7596 109.959C99.518 110.124 99.2288 110.222 98.9551 110.319C98.2665 110.562 97.5238 110.638 96.7996 110.677C94.9006 110.778 92.9986 110.296 91.3329 109.4C85.396 106.205 87.0243 99.323 86.444 93.8272C86.134 90.8956 84.892 87.3089 82.524 85.2504ZM88.2395 107.594C90.0129 110.038 93.0414 111.216 95.9813 111.301C97.3643 111.342 99.9673 111.147 100.523 109.538C100.548 109.466 100.615 109.226 100.464 109.232C94.7928 109.416 94.312 102.418 93.9865 98.2232C93.3271 91.0831 89.3089 84.7071 81.5498 84.5464C81.363 84.5422 81.0636 85.0314 81.2606 85.1534C89.1494 90.0452 83.5107 101.078 88.2395 107.594Z" fill="currentColor"/>
<path d="M179.38 87.3443C182.844 89.0535 184.442 93.7198 185.155 97.1952C186.376 103.13 185.161 109.612 181.094 114.217C176.102 119.871 167.247 121.62 160.216 123.171C152.146 124.949 144.324 126.807 136.936 130.502C145.05 124.012 154.666 118.905 164.449 115.673C172.278 113.048 178.289 107.583 179.898 99.3013C180.642 95.473 180.481 91.1453 179.38 87.3443ZM164.595 115.078C154.05 118.561 143.64 124.213 135.148 131.433C135.053 131.513 134.787 132.146 135.059 131.997C143.796 127.229 153.154 125.395 162.736 123.163C169.888 121.497 177.913 119.235 182.472 113.05C185.706 108.665 186.522 102.9 185.74 97.6178C185.152 93.6502 183.269 88.0138 179.102 86.4791C178.897 86.4035 178.665 86.829 178.718 86.9944C179.8 90.2592 180.052 93.909 179.775 97.3089C179.045 106.255 172.844 112.312 164.595 115.078Z" fill="currentColor"/>
<path d="M209.651 109.357C211.967 111.942 211.97 116.409 211.418 119.574C210.367 125.588 206.135 130.198 200.703 132.712C191.806 136.832 181.405 135.257 172.025 134.298C161.009 133.171 150.006 132.318 139.075 134.086C149.306 130.932 160.359 129.286 170.945 129.858C182.54 130.509 195.45 128.831 203.819 119.958C206.492 117.124 208.879 113.285 209.651 109.357ZM171.19 129.242C159.181 128.591 146.54 130.797 135.203 134.817C135.023 134.881 134.746 135.482 135.059 135.413C148.814 132.36 162.617 134.051 176.459 135.383C185.599 136.264 195.53 136.806 203.606 131.645C208.087 128.781 211.104 124.06 211.929 118.828C212.446 115.546 212.274 110.996 209.743 108.492C209.585 108.336 209.368 108.864 209.357 108.946C208.778 112.963 206.116 117.073 203.288 119.994C195.117 128.435 182.31 129.865 171.19 129.242Z" fill="currentColor"/>
<path d="M134.117 139.297C143.28 139.735 152.608 141.914 160.913 145.644C176.594 152.762 196.595 159.294 213.409 151.936C216.778 150.462 219.931 148.337 222.412 145.608C222.92 145.049 223.406 144.459 223.821 143.827C223.858 143.769 223.897 143.711 223.933 143.651C223.47 144.4 223.608 145.228 223.542 146.119C223.372 148.445 222.562 150.665 221.368 152.653C217.256 159.51 208.439 162.289 200.942 162.956C191.995 163.753 182.858 161.448 175.18 156.861C162.489 149.282 148.46 143.157 134.117 139.297ZM209.815 161.673C216.477 159.375 222.404 154.427 223.787 147.259C224.032 145.991 224.069 144.695 224.016 143.408C224.003 143.102 223.733 143.35 223.653 143.482C220.983 147.912 215.291 150.914 210.496 152.514C194.34 157.907 175.987 151.739 161.247 145.047C152.014 140.902 141.486 138.639 131.357 138.584C131.175 138.582 130.864 139.139 131.067 139.19C137.201 140.714 143.221 142.818 149.122 145.064C154.952 147.286 160.665 149.818 166.225 152.65C171.623 155.399 176.615 158.913 182.311 161.04C191.007 164.29 201.007 164.71 209.815 161.673Z" fill="currentColor"/>
<path d="M170.868 172.373C177.887 180.395 186.785 187.075 197.622 188.405C203.527 189.13 209.685 187.999 215.011 185.369C215.579 185.089 216.135 184.783 216.68 184.459C217.751 183.819 216.718 184.481 216.287 185.192C213.833 189.24 210.03 192.214 205.573 193.746C196.595 196.833 186.526 193.448 178.681 188.923C171.08 184.538 164.926 178.332 159.566 171.463C154.455 164.918 149.204 158.461 143.57 152.357C141.191 149.78 138.729 147.229 136.021 144.995C140.853 147.123 145.37 150.078 149.644 153.105C157.454 158.638 164.588 165.156 170.868 172.373ZM133.555 143.264C133.328 143.182 133.023 143.784 133.221 143.861C134.778 144.461 136.191 145.978 137.388 147.066C143.336 152.472 148.514 158.779 153.582 164.99C157.633 169.953 161.358 175.201 165.864 179.769C169.584 183.541 173.793 186.821 178.348 189.52C185.808 193.939 194.915 196.792 203.584 194.862C209.683 193.503 214.448 189.304 217.4 183.915C217.465 183.796 217.533 183.391 217.274 183.568C213.306 186.308 208.101 187.588 203.375 187.925C190.51 188.844 179.38 181.115 171.265 171.84C165.248 164.923 158.46 158.726 151.071 153.299C145.706 149.356 139.86 145.531 133.555 143.264Z" fill="currentColor"/>
<path d="M162.538 222.314C153.672 217.044 148.97 206.355 146.572 196.783C145.007 190.529 144.562 184.037 143.354 177.71C142.369 172.548 141.084 167.439 139.417 162.454C137.684 157.265 135.475 152.044 132.247 147.581C136.773 151.954 140.076 157.795 142.921 163.231C147.665 172.294 151.208 182.036 153.724 191.942C156.561 202.974 162.688 213.298 173.811 217.401C178.091 218.978 183.203 219.692 187.786 218.924C180.416 224.887 171.163 227.445 162.538 222.314ZM188.731 218.196C184.202 219.12 179.144 218.452 174.809 217.035C163.377 213.298 157.011 202.611 154.157 191.507C151.687 181.785 148.192 172.314 143.659 163.361C140.164 156.458 135.818 148.877 129.371 144.302C129.193 144.176 128.848 144.755 129.038 144.899C130.878 146.303 132.246 148.542 133.426 150.477C137.543 157.221 139.923 164.998 141.741 172.631C144.516 184.261 144.704 196.37 149.62 207.428C153.138 215.337 159.211 223.103 167.957 225.322C175.58 227.257 182.98 223.586 188.647 218.724C188.706 218.673 188.962 218.149 188.731 218.196Z" fill="currentColor"/>
<path d="M86.7396 110.825C90.537 114.337 99.3108 118.465 103.186 113.094C103.451 119.153 97.2255 121.051 92.0266 119.934C85.9707 118.631 80.485 113.535 78.2843 107.833C76.3561 102.835 76.9869 96.6257 79.2609 91.7184C78.8687 98.7937 81.5264 106.003 86.7396 110.825ZM79.9149 90.3419C79.9167 90.3241 79.9167 90.3062 79.9196 90.2878C79.944 90.0736 79.8631 89.9504 79.7572 89.9093C79.6631 89.8379 79.5411 89.8504 79.434 90.0468C75.9437 96.4436 75.567 104.845 79.2138 111.206C82.4304 116.817 89.0951 121.231 95.6395 121.147C100.794 121.082 104.329 117.197 103.663 112.111C103.622 111.794 103.349 111.683 103.18 111.98C99.6143 118.258 90.2311 113.061 86.6069 109.707C81.4461 104.936 79.1371 97.2833 79.9131 90.3663C79.9137 90.358 79.9131 90.3503 79.9149 90.3419Z" fill="currentColor"/>
<path d="M117.666 137.394C118.838 137.802 120.229 137.932 121.325 137.391C122.285 136.917 123.144 136.116 123.426 135.037C124.045 132.673 122.633 130.986 121.223 129.242C125.448 128.736 129.717 133.44 128.726 137.59C127.555 142.495 119.328 141.556 117.666 137.394ZM120.931 129.014C120.928 129.014 120.926 129.016 120.923 129.016C120.917 129.017 120.91 129.017 120.904 129.019C120.902 129.019 120.899 129.02 120.898 129.02C120.719 129.054 120.493 129.205 120.55 129.276C122.24 131.378 124.031 133.444 122.383 136.202C121.346 137.936 118.93 137.555 117.454 136.845C117.333 136.787 116.91 136.911 116.953 137.09C118.02 141.412 125.378 142.751 128.175 139.532C132.149 134.955 126.136 127.893 120.931 129.014Z" fill="currentColor"/>
<path d="M119.877 148.031C120.848 149.911 121.255 152.02 121.38 154.112C121.609 157.978 120.681 161.335 117.607 163.824C113.17 167.418 107.251 167.131 102.254 164.945C101.331 164.541 100.246 163.927 99.3958 163.137C102.03 164.012 104.692 164.314 107.46 163.354C110.302 162.367 112.984 160.016 114.538 157.472C117.113 153.259 116.502 148.247 116.066 143.56C117.779 144.406 119.094 146.517 119.877 148.031ZM115.036 155.068C114.079 158.494 111.004 160.968 107.812 162.274C104.616 163.58 101.104 162.577 98.0908 161.287C97.7408 161.138 97.3088 162.085 97.4004 162.348C98.252 164.773 101.404 166.096 103.591 166.803C109.406 168.684 115.203 167.492 119.389 162.955C122.633 159.437 122.703 153.642 121.491 149.277C120.809 146.822 118.719 142.782 115.894 142.151C115.579 142.082 115.209 142.792 115.191 143.11C115.191 143.116 115.189 143.123 115.189 143.127C115.19 143.135 115.191 143.143 115.191 143.151C115.191 143.169 115.191 143.189 115.195 143.202C115.528 147.225 116.152 151.075 115.036 155.068Z" fill="currentColor"/>
<path d="M66.8635 16.1954C65.8709 15.0093 65.1413 13.6287 64.5789 12.1951C64.1992 11.2256 64.0361 10.2104 63.9558 9.17962C63.9213 8.75055 63.7594 6.74621 64.4051 8.1727C68.5489 17.3332 84.3705 12.4831 85.1757 24.1723C81.9787 22.018 77.9064 22.5815 74.3274 21.405C71.409 20.4439 68.8184 18.5312 66.8635 16.1954ZM69.5183 19.5262C71.9017 21.3741 74.7969 22.4238 77.7505 22.8648C80.4683 23.2707 82.9976 23.2647 85.3072 24.9775C85.4125 25.0554 85.5018 24.9257 85.5393 24.7644C85.5566 24.7174 85.5685 24.6662 85.5673 24.6109C85.4471 19.9101 82.8595 16.8524 78.5455 15.1706C72.9872 13.005 66.6368 12.9425 64.1825 6.49508C64.0992 6.27608 63.9094 6.44985 63.8778 6.60041C62.7834 11.6815 65.5798 16.4715 69.5183 19.5262Z" fill="currentColor"/>
<path d="M47.683 9.03141C50.5645 13.1258 54.0156 16.2192 58.9365 17.6367C63.0071 18.8097 66.4189 19.7154 69.2921 22.7999C67.9001 22.4559 66.4022 22.4661 64.9918 22.4411C62.5405 22.3964 60.0934 22.3774 57.6767 21.9144C51.043 20.6438 48.3507 15.1736 47.683 9.03141ZM56.6251 22.228C59.0133 22.8416 61.5282 22.8612 63.9789 22.8987C65.9678 22.9296 68.162 22.8207 70.0288 23.6224C70.0419 23.6277 70.0645 23.6105 70.0806 23.6087C70.1002 23.6039 70.1133 23.6063 70.1359 23.5944C70.1752 23.5736 70.2115 23.545 70.2526 23.5051C70.2675 23.4914 70.28 23.4807 70.2942 23.4658C70.3169 23.4397 70.3317 23.417 70.3508 23.3891C70.3764 23.351 70.396 23.32 70.4079 23.2855C70.4144 23.2665 70.4085 23.2552 70.4091 23.2397C70.4109 23.2141 70.4258 23.1844 70.4109 23.1665C67.621 19.6958 64.2836 18.4598 60.1184 17.3909C54.516 15.9549 50.7436 12.6003 47.5651 7.83762C47.4705 7.69717 47.1301 8.14053 47.1379 8.25241C47.5723 14.6725 49.9432 20.5093 56.6251 22.228Z" fill="currentColor"/>
<path d="M49.3975 25.6706C53.2133 26.0706 58.4646 25.3023 61.8686 27.4637C55.8051 32.1074 43.5946 30.5976 42.0996 22.0684C42.4299 22.441 42.7733 22.8016 43.1203 23.1616C43.6576 23.7199 44.2176 24.2364 44.8943 24.6203C46.2136 25.3713 47.9228 25.5159 49.3975 25.6706ZM41.9497 21.1734C41.7634 20.9579 41.5551 21.2025 41.5742 21.4126C42.4478 30.9939 55.9782 33.0209 62.3983 27.6672C62.4019 27.6643 62.4036 27.6583 62.4072 27.6547C62.5221 27.5601 62.5614 27.3375 62.4245 27.228C62.4019 27.1983 62.3739 27.1792 62.3412 27.1703C59.5548 25.2416 55.3837 25.5123 52.1683 25.3433C50.1598 25.238 48.1222 25.1279 46.1744 24.5846C44.3605 24.0793 43.131 22.5499 41.9497 21.1734Z" fill="currentColor"/>
<path d="M43.2411 40.1788C40.3066 39.9093 41.4326 36.9414 43.3768 35.8238C44.6902 35.0686 46.2661 34.7514 47.7384 34.486C50.0153 34.0754 52.3374 34.0302 54.6441 33.8683C53.1789 34.6461 51.8351 35.6298 50.5134 36.6564C48.2561 38.4084 46.3 40.4615 43.2411 40.1788ZM56.7466 32.9655C56.7406 32.9643 56.7389 32.9578 56.7317 32.9584C53.2342 33.3339 49.7118 33.2797 46.275 34.1093C43.9404 34.6723 40.7571 36.1922 40.3905 38.8785C40.0496 41.3905 44.5873 41.2364 45.9418 40.5181C49.6398 38.5548 52.3166 35.1317 56.3592 33.7177C56.4074 33.6999 56.4609 33.6517 56.5145 33.591C56.5365 33.5666 56.5568 33.5416 56.5794 33.513C56.7448 33.3005 56.8561 33.0119 56.7615 32.972C56.7579 32.9679 56.7525 32.9667 56.7466 32.9655Z" fill="currentColor"/>
<path d="M52.8359 1.76717C54.2695 0.315095 56.4816 -0.0973177 58.2538 0.892353C62.4797 3.25197 57.789 10.019 60.6485 12.6524C57.8533 12.2423 55.6127 11.2491 53.7107 8.92279C52.0426 6.88513 50.5769 4.05716 52.8359 1.76717ZM61.4519 13.1862C61.471 13.1885 61.4918 13.1695 61.5108 13.1624C61.537 13.1546 61.5584 13.1505 61.5846 13.132C61.5846 13.132 61.5852 13.132 61.5852 13.1302C61.6804 13.0612 61.7536 12.9446 61.7495 12.8624C61.7513 12.8511 61.7429 12.847 61.7417 12.8368C61.7364 12.8237 61.7423 12.8017 61.7275 12.794C58.7555 11.3651 60.7658 5.90617 60.4164 3.33886C60.0153 0.398411 56.9725 -0.590069 54.5236 0.334734C51.6528 1.41843 50.7203 4.27973 51.873 6.95475C53.6244 11.0229 57.2855 12.7952 61.4519 13.1862Z" fill="currentColor"/>
<path d="M40.471 9.70789C41.447 10.1756 41.2917 11.3992 41.5452 12.2835C41.86 13.3762 42.3314 14.3682 42.9253 15.3329C43.4466 16.1809 44.084 17.0004 44.7892 17.7324C43.152 17.5509 41.5833 16.4582 40.4014 15.4204C39.5022 14.6312 38.7863 13.6445 38.3554 12.5287C37.7276 10.9005 38.6714 8.84497 40.471 9.70789ZM45.5973 18.4852C45.5991 18.4852 45.6009 18.4822 45.6027 18.4822C45.6116 18.4798 45.6199 18.4745 45.6277 18.4703C45.8169 18.3912 45.8235 17.8419 45.6747 17.7645L45.6741 17.7639C43.8185 16.1202 42.2837 13.8576 41.7184 11.4349C41.4833 10.4256 41.5476 9.621 40.5912 9.00149C39.892 8.54801 39.0642 8.7569 38.4929 9.27881C36.9039 10.7315 38.2066 13.6582 39.2046 14.9788C40.5603 16.7725 43.2222 18.7161 45.5973 18.4852Z" fill="currentColor"/>
<path d="M74.7951 31.6369C74.9546 32.6569 76.0842 33.5894 77.1339 33.2234C79.1966 32.4998 79.4584 29.5296 77.4148 28.5965C76.1847 28.0347 74.8314 29.3915 74.256 30.3235C73.6519 31.303 73.3996 32.3552 73.4889 33.5002C73.6984 36.1615 76.6227 37.4243 78.8425 36.2758C79.0978 36.1431 79.1198 35.1843 78.9294 35.2831C75.9294 36.8358 72.2516 33.5829 74.7416 30.6169C74.766 30.5865 74.794 30.5621 74.8195 30.5329C74.7565 30.8876 74.7344 31.2524 74.7951 31.6369Z" fill="currentColor"/>
<path d="M63.9466 45.2355C63.7062 47.76 64.5018 52.0371 61.2597 52.9273C57.1647 54.0509 57.6783 47.5731 58.2728 45.5164C59.6814 40.6526 63.4015 36.4755 67.5714 33.7047C66.577 35.3966 65.8218 37.2438 65.1987 39.0886C64.528 41.0781 64.1448 43.1503 63.9466 45.2355ZM68.3998 32.7311C68.3921 32.6471 68.3558 32.6013 68.2683 32.6561C63.9341 35.3704 60.4491 39.2666 58.4353 43.984C57.3129 46.6138 56.2054 51.1658 58.9596 53.213C62.2482 55.6583 64.1686 50.2898 64.3132 48.0593C64.6536 42.7831 65.3231 37.6645 68.3409 33.1458C68.4343 33.0054 68.4445 32.8292 68.3998 32.7311Z" fill="currentColor"/>
<path d="M50.6196 72.4468C49.7014 72.0474 49.5311 70.5716 49.4853 69.7146C49.3806 67.7739 49.9763 64.0438 51.5123 62.556C51.9419 65.0079 52.2758 67.5002 52.3353 69.9907C52.3555 70.8037 52.5228 73.2728 50.6196 72.4468ZM53.1167 68.4309C53.0221 66.1451 52.6864 63.8468 52.2853 61.5949C52.2806 61.5616 52.2538 61.5526 52.2181 61.555C52.1883 61.5169 52.1104 61.5312 51.9497 61.6473C49.8817 63.1315 49.2491 66.0475 48.8593 68.4018C48.554 70.2514 48.7028 74.7094 51.6384 73.1067C53.3393 72.179 53.1845 70.0794 53.1167 68.4309Z" fill="currentColor"/>
<path d="M57.1511 65.32C57.3927 64.2583 57.7212 63.2175 58.0628 62.1832C58.6275 63.7245 59.2673 65.2402 59.7696 66.8066C60.0623 67.7213 60.4831 69.0561 59.91 69.944C59.3875 70.751 57.8592 70.6177 57.2504 70.0529C56.1751 69.0525 56.8803 66.5156 57.1511 65.32ZM58.277 61.2637C58.227 61.1221 58.1556 61.078 58.0824 61.0828C58.0806 61.0822 58.0788 61.0828 58.0765 61.0828C58.0628 61.0846 58.0479 61.084 58.0336 61.0905C57.9652 61.1048 57.8967 61.1631 57.8503 61.3018C57.2653 63.0574 54.4433 70.2612 57.6676 71.111C63.3849 72.619 58.8733 62.9669 58.277 61.2637Z" fill="currentColor"/>
<path d="M64.0951 64.0101C64.3307 63.0978 64.6271 62.1986 64.8592 61.2851C65.3216 62.4789 65.7929 63.6697 66.175 64.8938C66.4321 65.7192 67.0189 67.4748 66.1161 68.1455C65.5335 68.5787 64.3736 68.4329 63.9076 67.9087C63.1179 67.0213 63.8392 64.9968 64.0951 64.0101ZM65.061 59.9699C64.9872 59.7759 64.8788 59.7705 64.7789 59.8514C64.6795 59.8871 64.5843 59.9972 64.5486 60.196C64.204 62.0861 61.1862 68.5799 64.5991 69.2304C69.5618 70.1778 65.6513 61.5338 65.061 59.9699Z" fill="currentColor"/>
<path d="M72.5649 61.9185C73.3302 63.0563 74.6353 66.158 71.9424 65.9497C69.9768 65.7992 70.3041 61.2751 70.3987 59.3339C71.2223 60.0974 71.943 60.9954 72.5649 61.9185ZM72.7411 66.161C76.3593 65.0148 71.7895 59.8659 70.385 58.6989C70.3791 58.6929 70.3701 58.6924 70.363 58.6876C70.3457 58.6769 70.3285 58.6691 70.3071 58.6656C70.2809 58.6608 70.2541 58.6596 70.2255 58.6632C70.2005 58.6685 70.1827 58.6715 70.1577 58.681C70.1172 58.6947 70.0797 58.7138 70.047 58.7376C70.0393 58.7435 70.0351 58.7465 70.0297 58.7525C69.9714 58.8001 69.9381 58.8572 69.9589 58.9125C69.9369 60.7996 69.2531 67.2661 72.7411 66.161Z" fill="currentColor"/>
<path d="M51.4722 80.049C52.0322 81.3802 52.8434 82.4324 54.0247 83.3245C55.1322 84.157 56.5712 84.7587 56.758 86.3C56.9812 88.1336 55.2833 88.9911 53.7265 88.812C52.4464 88.6638 51.3312 87.6206 50.729 86.5458C49.6566 84.6361 50.5564 81.9938 51.4722 80.049ZM55.9588 88.8346C57.1692 87.9122 57.9155 85.9941 56.8723 84.648C56.2486 83.841 55.3298 83.3483 54.5133 82.7639C53.2391 81.8516 52.3851 80.65 51.8495 79.1867C51.846 79.1688 51.84 79.1527 51.8281 79.1438C51.7514 78.9796 51.4853 79.1557 51.3526 79.3628C51.3366 79.3813 51.3205 79.3997 51.3104 79.4193C50.1124 81.773 48.9805 84.8843 50.3862 87.3837C51.4187 89.2238 54.1871 90.1849 55.9588 88.8346Z" fill="currentColor"/>
<path d="M60.7383 80.8231C60.8484 79.6156 61.1055 78.4379 61.2132 77.2346C61.6619 78.1052 62.4391 78.6706 63.3711 79.127C64.6601 79.7602 67.2452 80.2417 67.2226 82.071C67.1887 84.7312 64.4988 85.3995 62.532 84.3967C61.0835 83.6588 60.5925 82.4109 60.7383 80.8231ZM66.5561 84.6687C67.7535 83.5136 67.9695 81.3319 66.7334 80.1714C65.1153 78.6521 61.9095 78.8378 61.2513 76.3342C61.2066 76.164 61.1317 76.1223 61.0632 76.1491C60.9912 76.1306 60.9257 76.1842 60.9228 76.3639C60.8609 78.8205 59.3725 82.0615 61.3066 84.1218C62.6611 85.5661 65.035 86.1357 66.5561 84.6687Z" fill="currentColor"/>
<path d="M75.2839 79.4597C74.6739 81.27 72.2232 81.4753 70.9051 80.4541C69.0203 78.9949 68.8257 75.9051 68.8882 73.6722C71.0241 75.1035 76.5455 75.7123 75.2839 79.4597ZM68.7073 73.2723C68.7014 73.2979 68.6918 73.314 68.6895 73.3467C68.5883 75.9378 68.8829 78.6503 70.6051 80.7064C71.8144 82.1496 74.49 81.805 75.3017 80.1C75.9968 78.6366 75.6285 77.0578 74.4728 75.9586C72.9034 74.4661 70.5307 74.3429 68.8186 73.0968C68.7644 73.0581 68.7228 73.1539 68.7073 73.2723Z" fill="currentColor"/>
<path d="M16.061 136.438C17.4946 133.962 17.6571 130.991 17.5077 128.199C17.1947 122.38 15.0332 116.897 13.7472 111.269C11.5358 101.586 10.7514 90.9484 14.7744 81.6224C15.9902 78.8028 17.691 76.2325 19.6269 73.8592C22.102 70.8253 24.9639 68.9817 28.6744 67.6647C31.9671 66.4947 36.8804 65.3896 40.2106 67.2511C39.5227 67.2808 38.8264 67.4028 38.2872 67.4778C35.8937 67.8123 33.5793 68.5942 31.4226 69.6732C25.1668 72.8035 21.3271 78.7486 19.9459 85.4907C18.8169 91.002 19.4335 96.8275 19.7156 102.397C19.9697 107.433 20.3505 112.461 20.7338 117.488C21.0141 121.178 21.3283 124.879 21.3027 128.583C21.2878 130.855 21.1575 133.297 20.0756 135.345C18.9139 137.542 16.5133 138.307 14.087 138.563C14.8952 137.995 15.5867 137.257 16.061 136.438ZM10.5324 139.652C14.3976 139.696 18.9324 139.383 20.8451 135.482C23.1321 130.816 21.9234 124.238 21.5634 119.302C21.1897 114.154 20.7743 109.009 20.4839 103.856C20.1482 97.8904 19.5126 91.6893 20.6029 85.7733C21.9829 78.2916 26.8825 72.2357 33.997 69.5542C35.8401 68.8597 39.8274 67.4058 41.7954 68.4746C41.8472 68.508 41.896 68.5222 41.9412 68.5133C41.9513 68.5133 41.962 68.5133 41.9721 68.5109C41.9799 68.508 41.9852 68.5062 41.9924 68.5032C42.206 68.4431 42.2989 68.0485 42.1971 67.773C42.1888 67.7444 42.1751 67.7212 42.1626 67.6956C42.1554 67.6831 42.1483 67.6677 42.1388 67.6552C42.1292 67.6391 42.1227 67.6195 42.1102 67.6052C39.5149 64.8034 35.2093 65.145 31.7922 65.8181C28.1917 66.5262 23.8052 68.1003 21.2033 70.8277C17.0733 75.1577 14.0144 80.306 12.4731 86.1042C9.81767 96.0878 11.6982 106.879 14.3619 116.638C15.8539 122.108 20.0994 133.911 13.4401 137.948C12.6224 138.444 11.5358 138.756 10.5705 138.684C10.1033 138.678 10.0676 139.618 10.5324 139.652Z" fill="currentColor"/>
<path d="M29.1212 144.416C31.8153 141.465 33.2376 138.167 32.9144 133.868C32.6585 130.46 31.6415 127.103 30.6732 123.845C29.023 118.29 27.1537 112.799 25.3857 107.283C22.3458 97.5674 21.7168 86.5465 28.4493 78.2048C31.0041 75.04 35.0503 71.8741 39.2839 70.8505C26.9776 79.87 30.0025 97.5406 33.8392 110.647C36.8856 121.056 44.4923 141.118 29.1212 144.416ZM36.4458 116.442C31.9527 101.771 24.8328 79.8485 41.9684 70.4857C42.2714 70.3196 42.441 69.1842 41.9595 69.1907C36.2661 69.2704 30.556 73.7064 27.3733 78.0965C21.0419 86.831 21.6936 98.0655 24.7727 107.91C27.3626 115.988 30.675 124.16 32.0598 132.565C32.9103 137.721 31.1112 141.332 27.3483 144.768C27.1561 144.944 26.9895 146.059 27.4412 146.002C42.6082 144.066 39.6898 127.032 36.4458 116.442Z" fill="currentColor"/>
<path d="M48.7669 136.159C48.4747 137.002 48.1046 137.828 47.6065 138.569C47.5487 138.654 47.5065 138.723 47.4714 138.781C47.4952 138.713 47.5208 138.635 47.541 138.54C47.9713 136.508 47.6225 134.313 47.231 132.311C46.0401 126.204 43.1342 120.394 40.4871 114.814C37.9597 109.487 35.1532 104.082 34.1189 98.2208C33.2071 93.0624 33.3708 87.4541 35.002 82.4575C36.0827 79.1463 38.3156 75.2025 41.5536 73.4714C37.0504 83.3752 39.2083 95.1066 42.1832 105.13C43.8846 110.862 46.155 116.426 48.7306 121.817C50.9195 126.401 50.4047 131.441 48.7669 136.159ZM42.1422 73.075C42.1654 73.0232 42.1422 73.0042 42.0963 73.0042C42.0731 72.9774 42.0249 72.9685 41.9047 73.0268C34.7235 76.4529 32.9304 86.4162 33.1244 93.4094C33.3625 102.061 37.3622 109.537 40.9668 117.203C42.9551 121.435 44.8041 125.732 46.1264 130.225C46.8929 132.834 47.8403 136.507 46.9096 139.254C46.8471 139.441 47.1583 139.3 47.2173 139.264C49.8852 137.646 50.391 132.208 50.6576 129.509C51.2474 123.514 47.7118 118.518 45.5795 113.138C40.8133 101.11 36.344 85.5122 42.1422 73.075Z" fill="currentColor"/>
<path d="M151.454 92.1575C151.446 90.1568 153.946 89.0618 155.566 88.7261C157.746 88.2768 159.964 88.9671 161.692 90.3014C165.158 92.9776 166.121 98.264 164.825 102.208C163.485 106.29 159.941 109.482 156.013 110.999C155.735 111.108 155.795 112.319 156.101 112.201C164.738 108.864 169.019 98.0063 163.054 90.3353C161.077 87.7942 157.692 86.8051 154.648 87.7222C152.6 88.3387 151.032 89.9556 151.04 92.1498C151.043 92.8735 151.458 92.8877 151.454 92.1575Z" fill="currentColor"/>
<path d="M23.8443 118.967C26.4449 124.893 27.0567 131.894 24.4816 137.941C22.0006 143.763 16.3578 145.573 10.7637 143C10.3989 142.832 9.96271 143.857 10.34 144.03C16.334 146.788 21.8542 144.552 24.7512 138.745C27.9041 132.427 27.2537 124.498 24.4846 118.189C24.2728 117.706 23.6955 118.629 23.8443 118.967Z" fill="currentColor"/>
<path d="M39.613 123.354C41.0216 128.734 42.8296 134.719 42.0184 140.341C41.2573 145.609 36.5446 147.074 31.8688 147.462C31.6075 147.484 31.0838 148.091 31.5593 148.052C35.7001 147.709 40.5568 146.52 42.169 142.171C44.3751 136.227 41.8512 128.748 40.3354 122.953C40.2539 122.644 39.5457 123.092 39.613 123.354Z" fill="currentColor"/>
<path d="M115.239 201.633C122.333 199.632 126.19 193.182 127.954 186.435C129.559 180.01 130.914 173.561 131.037 166.918C131.153 160.689 129.932 154.577 127.811 148.762C134.445 159.488 138.255 172.904 137.411 185.315C136.869 193.304 133.232 201.024 125.663 204.463C119.705 207.17 113.096 205.772 107.851 202.306C110.325 202.572 112.911 202.29 115.239 201.633ZM126.258 205.547C133.722 202.156 137.066 194.118 137.844 186.427C139.274 172.25 134.337 156.416 126.2 144.767C125.905 144.343 125.813 145.611 125.905 145.82C128.985 152.75 130.656 160.004 130.515 167.602C130.4 173.76 128.992 179.819 127.505 185.766C125.68 192.747 121.508 198.819 114.199 200.564C111.424 201.227 108.215 201.283 105.439 200.526C105.095 200.431 105.19 201.67 105.387 201.837C111.25 206.831 119.054 208.82 126.258 205.547Z" fill="currentColor"/>
<path d="M104.138 194.495C102.181 190.942 105.566 188.824 108.712 188.351C110.546 188.076 112.385 188.383 114.196 187.933C115.784 187.537 117.235 186.584 118.52 185.608C121.502 183.343 123.829 180.172 125.679 176.952C126.451 175.61 127.205 174.124 127.722 172.583C127.469 180.648 124.942 188.885 118.45 194.082C114.847 196.967 107.032 199.751 104.138 194.495ZM111.72 198.072C114.764 197.571 117.491 195.92 119.776 193.913C126.764 187.782 128.796 177.758 128.383 168.881C128.381 168.658 128.281 168.575 128.157 168.58C127.95 168.577 127.683 168.829 127.694 169.117C127.731 173.379 124.622 177.864 122.086 181.043C120.646 182.849 118.964 184.465 117.041 185.746C114.765 187.263 112.652 187.259 110.032 187.367C107.305 187.48 104.008 188.35 103.066 191.232C102.43 193.17 103.392 195.319 104.746 196.696C106.454 198.432 109.499 198.437 111.72 198.072Z" fill="currentColor"/>
<path d="M97.933 179.733C104.541 179.364 111.794 178.63 116.993 174.34C123.037 169.351 124.234 160.893 124.254 153.348C126.315 161.538 126.352 171.056 120.401 177.582C114.482 184.072 105.256 182.97 97.933 179.733ZM121.091 177.866C127.763 170.548 126.92 159.096 124.193 150.345C124.193 150.342 124.192 150.341 124.189 150.337C124.174 150.274 124.149 150.227 124.114 150.197C124.113 150.196 124.113 150.195 124.111 150.194C124.096 150.181 124.079 150.172 124.061 150.166C123.922 150.085 123.738 150.194 123.623 150.372C123.622 150.375 123.622 150.379 123.62 150.382C123.597 150.417 123.577 150.455 123.56 150.495C123.55 150.522 123.545 150.551 123.539 150.58C123.534 150.604 123.53 150.627 123.528 150.652C123.528 150.662 123.523 150.673 123.523 150.684C123.789 159.184 122.997 169.163 115.494 174.566C110.191 178.384 102.533 178.636 96.2238 178.958C95.834 178.978 95.6496 179.634 96.0132 179.817C104.158 183.92 114.377 185.228 121.091 177.866Z" fill="currentColor"/>
<path d="M201.301 109.432C197.993 115.006 192.054 118.37 186.195 120.67C179.477 123.307 172.283 124.657 165.211 125.953C164.688 126.049 164.858 127.375 165.358 127.284C179.183 124.753 199.504 121.39 204.039 105.483C205.232 101.298 205.222 96.9669 204.596 92.6874C204.04 88.8763 202.895 84.9611 199.869 82.3771C197.941 80.731 195.198 80.2151 192.946 81.4606C190.638 82.7383 190.099 85.6258 190.297 88.0223C190.365 88.8347 191.114 88.7442 191.047 87.9402C190.821 85.2086 192.076 82.6729 194.923 82.1361C197.709 81.6088 200.151 83.6774 201.586 85.8222C203.979 89.4036 204.337 94.5715 204.262 98.7587C204.193 102.51 203.214 106.202 201.301 109.432Z" fill="currentColor"/>
<path d="M219.663 115.274C221.03 111.097 225.219 111.321 227.705 114.384C229.774 116.931 229.973 120.625 229.585 123.756C228.969 128.754 226.122 133.159 222.41 136.448C209.609 147.792 189.03 146.119 173.583 143.062C173.011 142.95 172.868 143.944 173.467 144.063C190.009 147.336 212.895 148.873 225.345 134.835C228.824 130.913 230.804 125.865 230.65 120.609C230.552 117.258 229.226 113.175 225.97 111.608C223.492 110.414 220.594 111.09 219.326 113.673C219.118 114.094 218.954 114.506 218.808 114.953C218.609 115.563 219.461 115.89 219.663 115.274Z" fill="currentColor"/>
<path d="M242.736 147.744C239.375 145.089 235.306 146.712 232.834 149.646C232.459 150.092 233.053 150.989 233.526 150.428C236.836 146.496 241.947 146.822 244.528 151.34C246.681 155.104 245.037 159.683 243.057 163.113C238.327 171.305 229.806 175.762 220.78 177.386C212.383 178.896 203.815 179.049 195.486 177.049C185.003 174.531 175.77 168.532 167.735 161.52C167.231 161.082 166.942 162.2 167.358 162.562C176.322 170.385 186.603 176.62 198.41 178.854C207.866 180.643 218.848 180.012 227.953 176.817C236.226 173.914 244.386 166.529 246.208 157.684C246.969 153.98 245.721 150.1 242.736 147.744Z" fill="currentColor"/>
<path d="M213.808 196.974C210.02 197.055 206.494 199.236 203.61 201.494C203.193 201.821 203.391 202.506 203.911 202.099C207.533 199.266 212.405 196.618 217.069 198.43C220.171 199.635 221.449 203.061 220.296 206.072C218.408 210.994 211.358 212.489 206.809 213.197C201.151 214.077 195.228 213.602 189.754 211.967C171.533 206.522 161.771 189.984 153.069 174.427C152.834 174.008 152.11 174.682 152.312 175.044C157.343 184.037 162.471 193.379 169.728 200.809C175.44 206.656 183.314 211.335 191.239 213.355C196.699 214.747 202.512 214.779 208.039 213.807C212.317 213.053 217.104 211.511 219.917 207.995C224.036 202.846 219.835 196.846 213.808 196.974Z" fill="currentColor"/>
<path d="M139.197 197.044C138.142 205.491 137.817 214.31 132.788 221.536C128.019 228.393 120.57 233.525 111.996 232.973C104.193 232.472 99.6723 226.248 100.861 218.625C101.414 215.078 105.417 212.655 108.632 212.026C112.899 211.19 116.091 213.997 117.568 217.764C117.711 218.128 118.46 217.615 118.343 217.318C116.992 213.869 114.505 211.336 110.656 211.203C107.769 211.104 104.696 212.571 102.669 214.571C97.881 219.297 99.4265 227.934 104.819 231.56C110.356 235.283 118.533 233.913 123.925 230.658C131.504 226.084 136.506 218.328 138.233 209.785C139.1 205.491 139.432 201.092 139.974 196.751C140.027 196.313 139.234 196.734 139.197 197.044Z" fill="currentColor"/>
<path d="M165.404 229.263C164.995 229.372 164.259 230.411 164.97 230.223C169.458 229.032 176.627 231.258 176.129 237.066C175.843 240.409 171.131 240.395 168.729 240.011C165.574 239.506 162.611 237.839 160.005 236.07C153.87 231.907 149.814 225.764 146.956 219.031C144.489 213.226 143.533 207.017 141.831 200.985C141.686 200.472 140.593 201.184 140.716 201.622C142.869 209.255 144.183 216.853 147.865 223.985C151.634 231.284 157.854 237.7 165.759 240.405C169.549 241.703 176.809 241.679 177.27 236.298C177.791 230.224 169.952 228.058 165.404 229.263Z" fill="currentColor"/>
</svg>