<svg width="150" height="99" viewBox="0 0 150 99" fill="none" xmlns="http://www.w3.org/2000/svg">
<path fill-rule="evenodd" clip-rule="evenodd" d="M20.4992 36.069L17.4901 47.5542L24.1578 46.2575L24.3006 45.232H28.3086L27.1086 53.896C27.0926 54.008 27.0846 54.144 27.0846 54.304C27.0846 54.784 27.2606 55.024 27.6126 55.024C28.1086 55.024 28.6766 54.488 29.3166 53.416L30.4686 45.232H34.4766L32.6766 58H29.1966L29.2686 56.248C28.7726 56.936 28.2366 57.472 27.6606 57.856C27.0846 58.24 26.4286 58.432 25.6926 58.432C24.8126 58.432 24.1326 58.168 23.6526 57.64C23.1726 57.096 22.9326 56.352 22.9326 55.408C22.9326 55.136 22.9566 54.848 23.0046 54.544L23.4888 51.0645L16.4558 52.0153C15.6408 55.4324 14.2617 60.5896 12.3183 67.4871C8.11817 82.4209 6.01811 91.8811 6.01811 95.8677L0 99C0 93.558 2.31948 83.0537 6.95843 67.4871C9.3406 59.7037 10.8138 54.7047 11.378 52.4899C9.18388 53.0594 7.17784 53.3442 5.35987 53.3442C1.78663 53.3442 0 51.9204 0 49.0729C0 47.4909 1.19108 45.5925 3.57325 43.3778C7.02112 40.1505 11.1272 37.303 15.8916 34.8351C19.5902 22.116 22.2545 14.1429 23.8844 10.9156C26.0785 6.54938 28.0845 3.7651 29.9025 2.5628C32.5981 0.854267 35.3877 0 38.2714 0C41.1551 0 43.1924 0.822628 44.3835 2.46788C45.5746 4.11314 46.1075 6.04315 45.9821 8.25791C45.6686 16.2311 37.1743 25.5014 20.4992 36.069ZM35.5444 8.06808C32.0339 8.06808 29.4323 9.77661 27.7397 13.1937C26.4232 15.8514 25.2635 19.047 24.2605 22.7804C23.2575 26.5139 22.5365 29.0767 22.0977 30.4688C25.5456 28.3174 29.2442 25.4065 33.1936 21.7363C37.143 18.0662 39.1804 14.8706 39.3057 12.1496C39.4311 9.42857 38.1774 8.06808 35.5444 8.06808ZM12.6944 48.0288L14.7632 39.6759C12.381 40.6884 10.5003 41.7325 9.12119 42.8082C7.80473 43.884 7.1465 44.8015 7.1465 45.5609C7.1465 47.2061 8.99581 48.0288 12.6944 48.0288ZM75.7249 45.232L73.9489 58H69.9409L71.7169 45.232H75.7249ZM74.1169 42.952C73.4769 42.952 72.9729 42.776 72.6049 42.424C72.2369 42.056 72.0529 41.576 72.0529 40.984C72.0529 40.248 72.3009 39.64 72.7969 39.16C73.2929 38.664 73.9009 38.416 74.6209 38.416C75.2609 38.416 75.7649 38.6 76.1329 38.968C76.5009 39.32 76.6849 39.792 76.6849 40.384C76.6849 41.12 76.4369 41.736 75.9409 42.232C75.4449 42.712 74.8369 42.952 74.1169 42.952ZM52.611 46.744C53.187 46.072 53.787 45.584 54.411 45.28C55.035 44.96 55.715 44.8 56.451 44.8C57.427 44.8 58.203 45.072 58.779 45.616C59.371 46.16 59.667 46.88 59.667 47.776C59.667 48.752 59.411 49.6 58.899 50.32C58.403 51.04 57.627 51.68 56.571 52.24L58.419 58H54.171L52.443 51.856C53.611 51.424 54.427 50.936 54.891 50.392C55.371 49.848 55.611 49.24 55.611 48.568C55.611 48.248 55.531 48.008 55.371 47.848C55.227 47.688 55.027 47.608 54.771 47.608C53.923 47.608 53.043 48.384 52.131 49.936L51.027 58H46.995L49.491 40.168L53.571 39.76L52.611 46.744ZM45.7532 45.568C45.2892 45.04 44.6492 44.776 43.8332 44.776C43.0812 44.776 42.3772 45 41.7212 45.448C41.0652 45.896 40.4892 46.504 39.9932 47.272L40.0412 45.232H36.5372L34.7612 58H38.7692L39.7772 50.92C40.1932 50.04 40.5612 49.384 40.8812 48.952C41.2012 48.52 41.5052 48.304 41.7932 48.304C42.0972 48.304 42.2492 48.536 42.2492 49C42.2492 49.192 42.2412 49.344 42.2252 49.456L41.0492 58H45.0572L46.3772 48.64C46.4252 48.32 46.4492 48.032 46.4492 47.776C46.4492 46.832 46.2172 46.096 45.7532 45.568ZM70.6449 46.432C69.6209 45.328 68.3169 44.776 66.7329 44.776C65.2769 44.776 64.0289 45.176 62.9889 45.976C61.9649 46.76 61.1969 47.784 60.6849 49.048C60.1729 50.312 59.9169 51.648 59.9169 53.056C59.9169 54.736 60.3649 56.056 61.2609 57.016C62.1569 57.96 63.3969 58.432 64.9809 58.432C66.5169 58.432 67.9089 57.936 69.1569 56.944L67.7169 54.472C67.2849 54.744 66.9089 54.944 66.5889 55.072C66.2849 55.2 65.9649 55.264 65.6289 55.264C65.1329 55.264 64.7489 55.112 64.4769 54.808C64.2209 54.488 64.0929 53.936 64.0929 53.152C64.0929 51.776 64.3089 50.56 64.7409 49.504C65.1729 48.432 65.8689 47.896 66.8289 47.896C67.4849 47.896 68.1089 48.16 68.7009 48.688L70.6449 46.432ZM75.3626 59.08C74.9306 59.624 74.2666 60.08 73.3706 60.448L74.3066 63.352C75.4106 62.952 76.3466 62.504 77.1146 62.008C77.8986 61.512 78.5626 60.816 79.1066 59.92C79.6666 59.04 80.0506 57.896 80.2586 56.488L81.8426 45.232H77.8106L76.2266 56.656C76.0826 57.744 75.7946 58.552 75.3626 59.08ZM78.6986 42.424C79.0666 42.776 79.5706 42.952 80.2106 42.952C80.9306 42.952 81.5386 42.712 82.0346 42.232C82.5306 41.736 82.7786 41.12 82.7786 40.384C82.7786 39.792 82.5946 39.32 82.2266 38.968C81.8586 38.6 81.3546 38.416 80.7146 38.416C79.9946 38.416 79.3866 38.664 78.8906 39.16C78.3946 39.64 78.1466 40.248 78.1466 40.984C78.1466 41.576 78.3306 42.056 78.6986 42.424ZM89.4489 44.776C91.1289 44.776 92.7449 45.216 94.2969 46.096L93.1449 54.184C93.1129 54.504 93.0969 54.72 93.0969 54.832C93.0969 55.056 93.1369 55.24 93.2169 55.384C93.2969 55.512 93.4329 55.624 93.6249 55.72L92.4249 58.36C91.7049 58.296 91.0809 58.104 90.5529 57.784C90.0409 57.464 89.6889 57.008 89.4969 56.416C89.0329 57.072 88.5209 57.576 87.9609 57.928C87.4169 58.264 86.7769 58.432 86.0409 58.432C84.8569 58.432 83.9449 58.008 83.3049 57.16C82.6649 56.296 82.3449 55.12 82.3449 53.632C82.3449 52.144 82.5849 50.728 83.0649 49.384C83.5449 48.04 84.3129 46.936 85.3689 46.072C86.4409 45.208 87.8009 44.776 89.4489 44.776ZM89.1849 47.656C88.2729 47.656 87.5849 48.272 87.1209 49.504C86.6569 50.72 86.4249 52.112 86.4249 53.68C86.4249 54.336 86.5129 54.8 86.6889 55.072C86.8649 55.328 87.1129 55.456 87.4329 55.456C87.9929 55.456 88.5849 54.96 89.2089 53.968L90.0969 47.8C89.7769 47.704 89.4729 47.656 89.1849 47.656ZM61.5155 65.46L61.2635 67.224L56.6555 73.092H60.5435L60.0395 75H53.4875L53.7395 73.236L58.3475 67.35H54.8915L55.1795 65.46H61.5155ZM61.0295 60.564L61.8575 61.572L59.2655 63.894H57.7895L55.8455 61.572L56.7995 60.564L58.6715 62.148L61.0295 60.564ZM52.2058 75L54.0778 61.662L51.6838 61.41L51.0358 66.162C50.5558 65.502 49.9018 65.172 49.0738 65.172C48.1498 65.172 47.3698 65.508 46.7338 66.18C46.0978 66.84 45.6238 67.674 45.3118 68.682C44.9998 69.678 44.8438 70.686 44.8438 71.706C44.8438 72.834 45.0718 73.716 45.5278 74.352C45.9958 74.976 46.6618 75.288 47.5258 75.288C48.5458 75.288 49.4038 74.748 50.0998 73.668L50.0638 75H52.2058ZM48.2638 67.764C48.5998 67.26 49.0258 67.008 49.5418 67.008C49.8178 67.008 50.0578 67.074 50.2618 67.206C50.4658 67.338 50.6458 67.542 50.8018 67.818L50.2618 71.706C49.9258 72.27 49.6078 72.702 49.3078 73.002C49.0078 73.302 48.6838 73.452 48.3358 73.452C47.6638 73.452 47.3278 72.876 47.3278 71.724C47.3278 71.052 47.3998 70.35 47.5438 69.618C47.6998 68.886 47.9398 68.268 48.2638 67.764ZM33.1367 65.172C33.7247 65.172 34.1927 65.376 34.5407 65.784C34.9007 66.192 35.0807 66.744 35.0807 67.44C35.0807 67.632 35.0627 67.836 35.0267 68.052L34.0367 75H31.6247L32.5427 68.448C32.5667 68.208 32.5787 68.058 32.5787 67.998C32.5787 67.494 32.4047 67.242 32.0567 67.242C31.5287 67.242 30.9407 67.968 30.2927 69.42L29.4827 75H27.0707L27.9887 68.448C28.0127 68.208 28.0247 68.058 28.0247 67.998C28.0247 67.494 27.8447 67.242 27.4847 67.242C26.9567 67.242 26.3687 67.986 25.7207 69.474L24.9467 75H22.5347L23.8667 65.46H25.9727L25.9007 67.026C26.6927 65.79 27.5867 65.172 28.5827 65.172C29.0987 65.172 29.5187 65.328 29.8427 65.64C30.1787 65.952 30.3887 66.39 30.4727 66.954C31.2287 65.766 32.1167 65.172 33.1367 65.172ZM41.217 65.19C42.177 65.19 42.927 65.424 43.467 65.892C44.019 66.36 44.295 66.954 44.295 67.674C44.295 68.898 43.779 69.798 42.747 70.374C41.715 70.938 40.353 71.316 38.661 71.508V71.562C38.661 72.798 39.159 73.416 40.155 73.416C40.515 73.416 40.869 73.35 41.217 73.218C41.565 73.074 41.949 72.858 42.369 72.57L43.251 74.046C42.183 74.874 41.043 75.288 39.831 75.288C38.679 75.288 37.791 74.964 37.167 74.316C36.543 73.656 36.231 72.726 36.231 71.526C36.231 70.482 36.405 69.48 36.753 68.52C37.101 67.548 37.647 66.75 38.391 66.126C39.147 65.502 40.089 65.19 41.217 65.19ZM38.805 69.942C40.857 69.738 41.883 69.018 41.883 67.782C41.883 67.506 41.811 67.29 41.667 67.134C41.535 66.966 41.313 66.882 41.001 66.882C40.401 66.882 39.921 67.176 39.561 67.764C39.201 68.352 38.949 69.078 38.805 69.942ZM62.2974 74.694C62.6694 75.09 63.1794 75.288 63.8274 75.288C64.3914 75.288 64.8894 75.138 65.3214 74.838C65.7534 74.538 66.1674 74.106 66.5634 73.542L66.4734 75H68.5614L69.8934 65.46H67.4994L66.6174 71.652C66.3174 72.132 66.0174 72.522 65.7174 72.822C65.4174 73.122 65.1114 73.272 64.7994 73.272C64.4154 73.272 64.2234 73.02 64.2234 72.516C64.2234 72.36 64.2294 72.24 64.2414 72.156L65.1774 65.46H62.7654L61.7934 72.426C61.7574 72.642 61.7394 72.846 61.7394 73.038C61.7394 73.734 61.9254 74.286 62.2974 74.694ZM74.8027 65.19C75.4267 65.19 76.0027 65.298 76.5307 65.514C77.0587 65.718 77.5207 66.006 77.9167 66.378L76.8367 67.71C76.1887 67.218 75.5287 66.972 74.8567 66.972C74.4487 66.972 74.1307 67.062 73.9027 67.242C73.6747 67.41 73.5607 67.65 73.5607 67.962C73.5607 68.226 73.6747 68.448 73.9027 68.628C74.1307 68.796 74.5627 69 75.1987 69.24C75.9307 69.528 76.4767 69.888 76.8367 70.32C77.2087 70.74 77.3947 71.292 77.3947 71.976C77.3947 72.624 77.2267 73.2 76.8907 73.704C76.5667 74.196 76.1047 74.586 75.5047 74.874C74.9167 75.15 74.2327 75.288 73.4527 75.288C72.7087 75.288 72.0367 75.156 71.4367 74.892C70.8487 74.616 70.3507 74.256 69.9427 73.812L71.2207 72.516C71.9047 73.164 72.6547 73.488 73.4707 73.488C73.9507 73.488 74.3167 73.368 74.5687 73.128C74.8207 72.888 74.9467 72.6 74.9467 72.264C74.9467 71.928 74.8327 71.664 74.6047 71.472C74.3887 71.28 73.9567 71.058 73.3087 70.806C72.5647 70.53 72.0187 70.194 71.6707 69.798C71.3347 69.39 71.1667 68.862 71.1667 68.214C71.1667 67.674 71.3107 67.176 71.5987 66.72C71.8987 66.252 72.3247 65.88 72.8767 65.604C73.4287 65.328 74.0707 65.19 74.8027 65.19ZM81.0787 72.912L81.0967 72.714L82.6627 61.392L80.2327 61.662L78.6847 72.75C78.6607 72.882 78.6487 73.068 78.6487 73.308C78.6487 73.932 78.8167 74.418 79.1527 74.766C79.5007 75.102 79.9807 75.27 80.5927 75.27C81.1687 75.27 81.6907 75.162 82.1587 74.946L81.8707 73.236C81.6787 73.284 81.5347 73.308 81.4387 73.308C81.1987 73.308 81.0787 73.176 81.0787 72.912ZM86.7805 75.288C85.6645 75.288 84.7945 74.952 84.1705 74.28C83.5585 73.596 83.2525 72.648 83.2525 71.436C83.2525 70.416 83.4205 69.432 83.7565 68.484C84.0925 67.524 84.6265 66.738 85.3585 66.126C86.1025 65.502 87.0325 65.19 88.1485 65.19C89.2645 65.19 90.1285 65.526 90.7405 66.198C91.3525 66.87 91.6585 67.812 91.6585 69.024C91.6585 70.032 91.4905 71.016 91.1545 71.976C90.8185 72.924 90.2845 73.716 89.5525 74.352C88.8205 74.976 87.8965 75.288 86.7805 75.288ZM86.9245 73.434C87.4885 73.434 87.9385 73.176 88.2745 72.66C88.6105 72.132 88.8445 71.508 88.9765 70.788C89.1205 70.068 89.1925 69.372 89.1925 68.7C89.1925 67.584 88.7905 67.026 87.9865 67.026C87.4345 67.026 86.9845 67.284 86.6365 67.8C86.3005 68.304 86.0605 68.916 85.9165 69.636C85.7845 70.344 85.7185 71.028 85.7185 71.688C85.7185 72.288 85.8145 72.732 86.0065 73.02C86.2105 73.296 86.5165 73.434 86.9245 73.434ZM97.032 75L101.01 65.46H98.472L95.844 73.074L95.304 65.46H92.73L94.134 75H97.032ZM98.6706 77.16C99.1266 76.956 99.4926 76.746 99.7686 76.53C100.045 76.314 100.267 76.02 100.435 75.648C100.615 75.288 100.747 74.802 100.831 74.19L102.055 65.46H104.467L103.243 74.172C103.111 75.144 102.865 75.93 102.505 76.53C102.157 77.13 101.725 77.598 101.209 77.934C100.705 78.282 100.057 78.618 99.2646 78.942L98.6706 77.16ZM103.567 63.498C103.171 63.498 102.853 63.378 102.613 63.138C102.385 62.898 102.271 62.592 102.271 62.22C102.271 61.752 102.421 61.368 102.721 61.068C103.033 60.756 103.423 60.6 103.891 60.6C104.287 60.6 104.599 60.72 104.827 60.96C105.067 61.188 105.187 61.494 105.187 61.878C105.187 62.346 105.031 62.736 104.719 63.048C104.407 63.348 104.023 63.498 103.567 63.498ZM113.825 66.072C112.757 65.484 111.641 65.19 110.477 65.19C109.301 65.19 108.329 65.52 107.561 66.18C106.793 66.828 106.229 67.65 105.869 68.646C105.521 69.642 105.347 70.674 105.347 71.742C105.347 72.834 105.587 73.698 106.067 74.334C106.547 74.97 107.225 75.288 108.101 75.288C108.641 75.288 109.115 75.156 109.523 74.892C109.931 74.628 110.315 74.25 110.675 73.758C110.867 74.634 111.503 75.132 112.583 75.252L113.303 73.632C113.135 73.56 113.015 73.47 112.943 73.362C112.883 73.254 112.853 73.11 112.853 72.93C112.853 72.798 112.871 72.636 112.907 72.444L113.825 66.072ZM108.929 67.692C109.313 67.212 109.793 66.972 110.369 66.972C110.681 66.972 110.981 67.026 111.269 67.134L110.567 72.084C110.279 72.528 109.997 72.87 109.721 73.11C109.445 73.338 109.151 73.452 108.839 73.452C108.503 73.452 108.251 73.326 108.083 73.074C107.915 72.81 107.831 72.378 107.831 71.778C107.831 71.01 107.921 70.26 108.101 69.528C108.281 68.784 108.557 68.172 108.929 67.692ZM120.89 65.172C121.502 65.172 121.988 65.376 122.348 65.784C122.72 66.192 122.906 66.75 122.906 67.458C122.906 67.662 122.888 67.872 122.852 68.088L121.862 75H119.45L120.368 68.448C120.392 68.232 120.404 68.094 120.404 68.034C120.404 67.518 120.212 67.26 119.828 67.26C119.24 67.26 118.574 68.004 117.83 69.492L117.056 75H114.644L115.976 65.46H118.082L118.01 67.098C118.862 65.814 119.822 65.172 120.89 65.172ZM129.757 65.514C129.229 65.298 128.653 65.19 128.029 65.19C127.297 65.19 126.655 65.328 126.103 65.604C125.551 65.88 125.125 66.252 124.825 66.72C124.537 67.176 124.393 67.674 124.393 68.214C124.393 68.862 124.561 69.39 124.897 69.798C125.245 70.194 125.791 70.53 126.535 70.806C127.183 71.058 127.615 71.28 127.831 71.472C128.059 71.664 128.173 71.928 128.173 72.264C128.173 72.6 128.047 72.888 127.795 73.128C127.543 73.368 127.177 73.488 126.697 73.488C125.881 73.488 125.131 73.164 124.447 72.516L123.169 73.812C123.577 74.256 124.075 74.616 124.663 74.892C125.263 75.156 125.935 75.288 126.679 75.288C127.459 75.288 128.143 75.15 128.731 74.874C129.331 74.586 129.793 74.196 130.117 73.704C130.453 73.2 130.621 72.624 130.621 71.976C130.621 71.292 130.435 70.74 130.063 70.32C129.703 69.888 129.157 69.528 128.425 69.24C127.789 69 127.357 68.796 127.129 68.628C126.901 68.448 126.787 68.226 126.787 67.962C126.787 67.65 126.901 67.41 127.129 67.242C127.357 67.062 127.675 66.972 128.083 66.972C128.755 66.972 129.415 67.218 130.063 67.71L131.143 66.378C130.747 66.006 130.285 65.718 129.757 65.514ZM135.241 66.81C136.057 65.73 137.017 65.19 138.121 65.19C138.817 65.19 139.375 65.394 139.795 65.802C140.215 66.198 140.425 66.72 140.425 67.368C140.425 68.1 140.221 68.742 139.813 69.294C139.405 69.846 138.775 70.32 137.923 70.716L139.525 75H136.933L135.385 70.374C136.321 70.062 136.981 69.696 137.365 69.276C137.761 68.856 137.959 68.352 137.959 67.764C137.959 67.5 137.893 67.296 137.761 67.152C137.641 67.008 137.461 66.936 137.221 66.936C136.861 66.936 136.477 67.122 136.069 67.494C135.661 67.854 135.271 68.394 134.899 69.114L134.089 75H131.677L133.549 61.662L135.997 61.392L135.241 66.81ZM149.439 66.072C148.371 65.484 147.255 65.19 146.091 65.19C144.915 65.19 143.943 65.52 143.175 66.18C142.407 66.828 141.843 67.65 141.483 68.646C141.135 69.642 140.961 70.674 140.961 71.742C140.961 72.834 141.201 73.698 141.681 74.334C142.161 74.97 142.839 75.288 143.715 75.288C144.255 75.288 144.729 75.156 145.137 74.892C145.545 74.628 145.929 74.25 146.289 73.758C146.481 74.634 147.117 75.132 148.197 75.252L148.917 73.632C148.749 73.56 148.629 73.47 148.557 73.362C148.497 73.254 148.467 73.11 148.467 72.93C148.467 72.798 148.485 72.636 148.521 72.444L149.439 66.072ZM144.543 67.692C144.927 67.212 145.407 66.972 145.983 66.972C146.295 66.972 146.595 67.026 146.883 67.134L146.181 72.084C145.893 72.528 145.611 72.87 145.335 73.11C145.059 73.338 144.765 73.452 144.453 73.452C144.117 73.452 143.865 73.326 143.697 73.074C143.529 72.81 143.445 72.378 143.445 71.778C143.445 71.01 143.535 70.26 143.715 69.528C143.895 68.784 144.171 68.172 144.543 67.692Z" fill="white"/>
</svg>
