<svg width="19" height="22" viewBox="0 0 19 22" fill="none" xmlns="http://www.w3.org/2000/svg">
<path d="M19 21.2857L16.6663 19.3368L15.3509 18.1783L13.96 16.9549L14.5314 18.8594H2.22515C1.63328 18.8574 1.06646 18.6328 0.649228 18.2351C0.231998 17.8374 -0.00151095 17.2991 7.35809e-06 16.7383V2.83315C-0.000904536 2.2728 0.232872 1.735 0.650037 1.33776C1.0672 0.940526 1.63368 0.716301 2.22515 0.714294H16.7749C17.3663 0.716301 17.9328 0.940526 18.35 1.33776C18.7671 1.735 19.0009 2.2728 19 2.83315V21.2857ZM13.8286 12.0914C13.3467 12.7037 12.6529 13.136 11.8686 13.3127C12.1909 13.7024 12.5794 14.1431 12.5829 14.1474C13.2287 14.1604 13.8683 14.0249 14.4469 13.7526C15.0254 13.4804 15.5258 13.0794 15.9051 12.584C15.8657 10.4995 15.3314 8.45013 14.3417 6.58798C13.4704 5.94026 12.4099 5.56226 11.304 5.50527H11.2914L11.1394 5.66984C12.1272 5.92119 13.0484 6.36602 13.8434 6.97558C12.8318 6.44875 11.7217 6.11337 10.5749 5.98816C9.84598 5.91146 9.10999 5.91837 8.38286 6.00873C8.33145 6.00969 8.28022 6.01476 8.22972 6.02388H8.19772C7.34554 6.11684 6.51407 6.33605 5.73372 6.67351C5.34286 6.84349 5.10286 6.96692 5.09258 6.97125C5.08229 6.97558 5.09258 6.97125 5.09258 6.96367C5.936 6.3357 6.90972 5.88097 7.94857 5.63086L7.83429 5.50743H7.82743C6.72159 5.56456 5.66107 5.94255 4.78972 6.59014C3.79647 8.45103 3.2619 10.5012 3.22629 12.5862C3.60071 13.0846 4.09896 13.488 4.67701 13.7606C5.25505 14.0333 5.89509 14.1669 6.54057 14.1496C6.54057 14.1496 6.94972 13.6775 7.26857 13.2953C6.504 13.1133 5.83031 12.6845 5.36343 12.0827C5.37143 12.0881 5.48458 12.1607 5.66743 12.2559C5.67886 12.27 5.69486 12.2808 5.712 12.2884C5.72646 12.2979 5.74176 12.3063 5.75772 12.3133C6.02843 12.4583 6.31039 12.5835 6.60115 12.6879C7.11886 12.8828 7.65486 13.0312 8.20115 13.1319C8.68 13.2174 9.16572 13.2618 9.65257 13.2618C10.1097 13.2618 10.5646 13.2217 11.0137 13.1427C11.5543 13.0528 12.0823 12.9045 12.5874 12.7009C13.0237 12.542 13.44 12.3375 13.8286 12.0914ZM11.4994 11.6291C11.2562 11.6494 11.0122 11.5995 10.7993 11.4861C10.5865 11.3728 10.4148 11.2011 10.3068 10.9936C10.1987 10.7862 10.1594 10.5527 10.1939 10.3237C10.2284 10.0947 10.3351 9.88087 10.5001 9.71034C10.6651 9.53981 10.8806 9.4205 11.1184 9.36804C11.3563 9.31558 11.6052 9.33244 11.8328 9.41638C12.0603 9.50033 12.2557 9.64746 12.3935 9.83847C12.5312 10.0295 12.6048 10.2555 12.6046 10.4868C12.6297 11.091 12.136 11.602 11.4983 11.6291H11.4994ZM7.536 11.6291C7.23435 11.6041 6.95351 11.473 6.74891 11.2616C6.54431 11.0501 6.43081 10.7737 6.43081 10.4868C6.43081 10.1999 6.54431 9.9235 6.74891 9.71204C6.95351 9.50058 7.23435 9.36945 7.536 9.34454C7.824 9.34454 8.09943 9.45715 8.29943 9.65312C8.52686 9.87615 8.65029 10.1761 8.64229 10.4857C8.65499 10.7763 8.54556 11.0599 8.33798 11.2742C8.13039 11.4885 7.84159 11.6161 7.53486 11.6291H7.536Z" fill="#DDE9FB"/>
</svg>
