<svg width="25" height="24" viewBox="0 0 25 24" fill="none" xmlns="http://www.w3.org/2000/svg">
<path d="M12.0427 2C9.67379 1.9997 7.38209 2.84248 5.57779 4.3775C3.77349 5.91252 2.57439 8.03957 2.19511 10.3779C1.81583 12.7163 2.28113 15.1133 3.50773 17.1399C4.73432 19.1666 6.64215 20.6905 8.88971 21.439C9.38971 21.529 9.56871 21.222 9.56871 20.958C9.56871 20.721 9.56071 20.093 9.55771 19.258C6.78271 19.858 6.19671 17.92 6.19671 17.92C6.01403 17.317 5.62129 16.7993 5.08971 16.461C4.18971 15.842 5.15871 15.856 5.15871 15.856C5.79871 15.944 6.36371 16.323 6.68571 16.884C6.82084 17.1297 7.00328 17.3462 7.22251 17.521C7.44174 17.6959 7.69341 17.8255 7.96302 17.9026C8.23262 17.9797 8.51482 18.0026 8.79332 17.9701C9.07183 17.9375 9.34114 17.8502 9.58571 17.713C9.63171 17.207 9.85771 16.734 10.2207 16.379C8.00671 16.128 5.67871 15.272 5.67871 11.449C5.66642 10.4602 6.03361 9.5043 6.70471 8.778C6.40106 7.91731 6.43682 6.97325 6.80471 6.138C6.80471 6.138 7.64171 5.869 9.54671 7.159C11.1806 6.71101 12.9049 6.71101 14.5387 7.159C16.4447 5.868 17.2807 6.138 17.2807 6.138C17.6507 6.973 17.6857 7.918 17.3807 8.778C18.0543 9.50423 18.4212 10.4626 18.4047 11.453C18.4047 15.286 16.0747 16.128 13.8527 16.375C14.3327 16.865 14.5777 17.537 14.5277 18.221C14.5277 19.555 14.5157 20.631 14.5157 20.958C14.5157 21.225 14.6937 21.535 15.2027 21.437C17.4494 20.6872 19.3559 19.1625 20.5813 17.1357C21.8066 15.1088 22.2708 12.7121 21.8907 10.3743C21.5107 8.03655 20.3112 5.91029 18.5069 4.37599C16.7025 2.84169 14.4112 1.99946 12.0427 2Z" fill="#DDE9FB"/>
</svg>
