<svg width="32" height="26" viewBox="0 0 32 26" fill="none" xmlns="http://www.w3.org/2000/svg">
  <!-- FAQ by Andreas Vögele from https://thenounproject.com/browse/icons/term/faq/ -->
  <!-- TODO: add proper attribution to Credits page when it is done -->
  <path d="M16.4013 0.85375C16.2363 0.84375 16.0713 0.84375 15.9062 0.84375C7.36125 0.84375 0.40625 6.44875 0.40625 13.3438C0.425642 15.8491 1.32064 18.2688 2.93625 20.1838L1.91625 25.2437C1.8992 25.3276 1.90405 25.4145 1.93033 25.4959C1.9566 25.5773 2.00341 25.6507 2.06625 25.7087C2.15783 25.7961 2.27971 25.8445 2.40625 25.8438C2.45365 25.8441 2.50085 25.8374 2.54625 25.8237L8.22625 24.1938C10.6375 25.2905 13.2573 25.8534 15.9062 25.8438C22.9812 25.8437 29.1462 21.9988 30.9112 16.4888C31.2386 15.4725 31.4056 14.4114 31.4062 13.3438C31.4063 6.54375 24.8113 1.05375 16.4013 0.85375ZM19.5713 10.2288C19.5845 10.7599 19.4457 11.2838 19.1712 11.7388C18.7616 12.3055 18.2495 12.7906 17.6612 13.1687C17.3007 13.4085 16.9758 13.698 16.6963 14.0287C16.5522 14.2588 16.4824 14.5276 16.4963 14.7987V15.2738H14.3862V14.6887C14.3746 14.2238 14.4886 13.7643 14.7163 13.3587C15.0294 12.8838 15.434 12.4759 15.9062 12.1587C16.3198 11.8928 16.6907 11.5658 17.0063 11.1888C17.1827 10.9465 17.2757 10.6534 17.2712 10.3538C17.2794 10.2015 17.2488 10.0496 17.1823 9.91232C17.1159 9.77505 17.0157 9.65685 16.8913 9.56875C16.5725 9.37139 16.2006 9.27711 15.8263 9.29875C14.8726 9.34231 13.9426 9.6095 13.1112 10.0787L12.2413 8.33875C13.3863 7.6847 14.6826 7.34167 16.0012 7.34375C16.9346 7.2936 17.856 7.57129 18.6063 8.12875C18.9191 8.37979 19.1693 8.70027 19.3368 9.06478C19.5043 9.42929 19.5846 9.82781 19.5713 10.2288ZM14.5013 18.9888C14.3745 18.8575 14.2765 18.7012 14.2136 18.5298C14.1508 18.3585 14.1244 18.1759 14.1362 17.9937C14.1222 17.81 14.1466 17.6253 14.2077 17.4515C14.2688 17.2776 14.3653 17.1183 14.4913 16.9837C14.7797 16.7381 15.1534 16.6159 15.5312 16.6437C15.9058 16.62 16.2744 16.7459 16.5562 16.9937C16.6821 17.1265 16.7791 17.2839 16.841 17.456C16.903 17.6281 16.9286 17.8112 16.9163 17.9937C16.9251 18.1748 16.8973 18.3558 16.8346 18.5259C16.7719 18.696 16.6755 18.8517 16.5513 18.9837C16.4138 19.1086 16.2527 19.2048 16.0776 19.2666C15.9024 19.3284 15.7167 19.3547 15.5312 19.3438C15.3446 19.3556 15.1575 19.3303 14.9807 19.2694C14.8039 19.2084 14.641 19.113 14.5013 18.9888Z" fill="currentColor"/>
</svg>
