<svg width="49" height="40" viewBox="0 0 49 40" fill="none" xmlns="http://www.w3.org/2000/svg">
<path d="M4.29175 4.58163C4.29175 2.3725 6.08261 0.581635 8.29175 0.581635H40.2917C42.5009 0.581635 44.2917 2.3725 44.2917 4.58163V28.5816H4.29175V4.58163Z" fill="#4C587B"/>
<path d="M24 18.0816C22.2022 17.3744 21 15.7169 21 13.8554C21 12.2129 21.7793 11.5004 22.203 11.1591C24.1875 9.55938 27 10.9566 27 13.5816C27 15.4566 24.8213 15.1724 24.375 14.7066C23.9287 14.2409 23.625 13.5816 24 12.8316" stroke="#DDE9FB" stroke-width="2" stroke-linecap="round" stroke-linejoin="round"/>
<path d="M24 21.0816C27.7279 21.0816 30.75 18.0596 30.75 14.3316C30.75 10.6037 27.7279 7.58163 24 7.58163C20.2721 7.58163 17.25 10.6037 17.25 14.3316C17.25 18.0596 20.2721 21.0816 24 21.0816Z" stroke="#DDE9FB" stroke-width="2" stroke-linecap="round" stroke-linejoin="round"/>
<path d="M0.827192 30.0816C1.06981 31.7778 2.52851 33.0816 4.29175 33.0816H44.2917C46.055 33.0816 47.5137 31.7778 47.7563 30.0816H0.827192Z" stroke="#4C587B"/>
</svg>
