<svg width="49" height="40" viewBox="0 0 49 40" fill="none" xmlns="http://www.w3.org/2000/svg">
<path d="M4.375 4.58163C4.375 2.3725 6.16586 0.581635 8.375 0.581635H40.375C42.5841 0.581635 44.375 2.3725 44.375 4.58163V28.5816H4.375V4.58163Z" fill="#4C587B"/>
<path d="M0.910444 30.0816C1.15306 31.7778 2.61176 33.0816 4.375 33.0816H44.375C46.1382 33.0816 47.5969 31.7778 47.8396 30.0816H0.910444Z" stroke="#4C587B"/>
<path d="M26.523 6.58264C25.5695 6.54788 24.3826 7.42406 23.9585 8.26505C23.6813 8.79634 23.4176 9.57054 23.5829 10.1512C24.4515 10.2706 25.5071 9.6655 25.9844 8.94457C26.512 8.1118 26.58 6.72739 26.523 6.58264Z" fill="#DDE9FB"/>
<path d="M24.0218 12.2144C23.049 12.1986 22.1393 11.4441 21.2323 11.4441C20.2673 11.4441 19.246 11.8708 18.6088 12.5153C17.7162 13.4181 17.2858 14.4316 17.3904 15.9645C17.5941 18.2906 18.5969 20.2481 20.0217 21.8076C20.508 22.2965 21.1779 22.691 21.9163 22.4834C22.9343 22.1972 24.0087 21.6737 25.096 22.0356C25.8746 22.2222 26.7193 22.7833 27.4806 22.5061C29.0159 21.9469 29.8304 20.1126 30.5519 18.6867C28.6849 17.9747 27.8186 15.7461 28.831 14.1233C29.1569 13.6009 29.7966 13.0842 30.142 12.8024C29.5163 12.088 28.3393 11.5441 27.2586 11.4351C26.1484 11.3231 25.1389 12.2327 24.0218 12.2144Z" fill="#DDE9FB"/>
</svg>
