<svg width="49" height="40" viewBox="0 0 49 40" fill="none" xmlns="http://www.w3.org/2000/svg">
<path d="M4.54175 4.58163C4.54175 2.3725 6.33261 0.581635 8.54175 0.581635H40.5417C42.7509 0.581635 44.5417 2.3725 44.5417 4.58163V28.5816H4.54175V4.58163Z" fill="#4C587B"/>
<path d="M1.07719 30.0816C1.31981 31.7778 2.77851 33.0816 4.54175 33.0816H44.5417C46.305 33.0816 47.7637 31.7778 48.0063 30.0816H1.07719Z" stroke="#4C587B"/>
<g clip-path="url(#clip0_412_6402)">
<path d="M24.75 7.08163C20.625 7.08163 17.25 10.4341 17.25 14.5816V20.3791C17.25 21.3316 18 22.0816 18.9525 22.0816H24.75C28.8975 22.0816 32.25 18.7066 32.25 14.5816C32.25 10.4566 28.875 7.08163 24.75 7.08163ZM26.2725 10.1716C27.5325 10.1716 28.7175 11.1316 28.7175 12.4666C28.7175 12.5866 28.7175 12.7066 28.7025 12.8491C28.665 13.2016 28.3425 13.4566 27.99 13.4116C27.9066 13.3993 27.8265 13.3703 27.7545 13.3264C27.6826 13.2824 27.6202 13.2244 27.5712 13.1558C27.5222 13.0872 27.4875 13.0094 27.4693 12.927C27.451 12.8447 27.4496 12.7595 27.465 12.6766C27.465 12.6316 27.4725 12.5716 27.4725 12.4666C27.4725 11.7091 26.8575 11.4166 26.2725 11.4166C25.6875 11.4166 25.1625 11.9116 25.1625 12.4666C25.17 13.1041 25.1625 13.7416 25.1625 14.3866L26.25 14.3716C27.09 14.3566 27.0975 15.6316 26.25 15.6241L25.1625 15.6316L25.155 17.4241C25.02 18.8341 23.8275 19.9516 22.3875 19.9516C20.865 19.9516 19.605 18.7066 19.605 17.1766C19.621 16.4234 19.9344 15.7072 20.4769 15.1844C21.0194 14.6616 21.7467 14.3748 22.5 14.3866L23.3625 14.3791V15.6316L22.5 15.6391H22.4775C21.6075 15.6616 20.865 16.2541 20.8575 17.1841C20.8575 18.0241 21.54 18.7066 22.3875 18.7066C23.25 18.7066 23.91 18.0841 23.91 17.1841C23.925 15.6766 23.9025 14.0191 23.91 12.4591C23.91 12.3691 23.9175 12.3016 23.925 12.2041C24.0675 11.0491 25.1025 10.1716 26.2725 10.1716Z" fill="#DDE9FB"/>
</g>
<defs>
<clipPath id="clip0_412_6402">
<rect width="16" height="16" fill="white" transform="translate(16.75 6.58163)"/>
</clipPath>
</defs>
</svg>
