<svg width="49" height="40" viewBox="0 0 49 40" fill="none" xmlns="http://www.w3.org/2000/svg">
<path d="M4.45837 4.58163C4.45837 2.3725 6.24924 0.581635 8.45837 0.581635H40.4584C42.6675 0.581635 44.4584 2.3725 44.4584 4.58163V28.5816H4.45837V4.58163Z" fill="#4C587B"/>
<path d="M0.993818 30.0816C1.23643 31.7778 2.69514 33.0816 4.45837 33.0816H44.4584C46.2216 33.0816 47.6803 31.7778 47.9229 30.0816H0.993818Z" stroke="#4C587B"/>
<path d="M17.7917 20.2014L17.8 15.0662H22.4947V20.8899L17.7917 20.2014Z" fill="#DDE9FB"/>
<path d="M23.7897 20.9995V15.0662H31.1251L31.0767 22.0799L23.7897 20.9995Z" fill="#DDE9FB"/>
<path d="M17.8032 13.7392H22.4933V8.86564L17.8005 9.58142L17.8032 13.7392Z" fill="#DDE9FB"/>
<path d="M23.7897 13.7392V8.71874L31.1248 7.58163L31.0826 13.7392H23.7897Z" fill="#DDE9FB"/>
</svg>
